<?xml version="1.0" standalone="no"?>
<!DOCTYPE svg PUBLIC "-//W3C//DTD SVG 1.1//EN" "http://www.w3.org/Graphics/SVG/1.1/DTD/svg11.dtd" >
<svg xmlns="http://www.w3.org/2000/svg" xmlns:xlink="http://www.w3.org/1999/xlink" version="1.1">
<metadata>
Created by FontForge 20170731 at Wed Apr 24 22:27:31 2013
 By Aleksey,,,
(c) Copyright Dmitry Goloub 2013
</metadata>
<defs>
<font id="GenplanFree-Inline" horiz-adv-x="639" >
  <font-face 
    font-family="Genplan Free"
    font-weight="400"
    font-stretch="normal"
    units-per-em="1000"
    panose-1="0 0 5 0 0 0 0 0 0 0"
    ascent="800"
    descent="-200"
    x-height="736"
    cap-height="737"
    bbox="20 -124.692 1591 991"
    underline-thickness="50"
    underline-position="-150"
    unicode-range="U+0020-2122"
  />
<missing-glyph horiz-adv-x="500" 
d="M50 0v533h400v-533h-400zM100 50h300v433h-300v-433z" />
    <glyph glyph-name=".notdef" horiz-adv-x="500" 
d="M50 0v533h400v-533h-400zM100 50h300v433h-300v-433z" />
    <glyph glyph-name=".null" horiz-adv-x="0" 
 />
    <glyph glyph-name="nonmarkingreturn" horiz-adv-x="333" 
 />
    <glyph glyph-name="space" unicode=" " horiz-adv-x="444" 
 />
    <glyph glyph-name="exclam" unicode="!" horiz-adv-x="247" 
d="M30 241v475q0 20 20 20h147q20 0 20 -20v-475q0 -20 -20 -20h-147q-20 0 -20 20zM154 671h-50v-376h50v376zM30 20v149q0 20 20 20h147q20 0 20 -20v-149q0 -20 -20 -20h-147q-20 0 -20 20zM154 124h-50v-50h50v50z" />
    <glyph glyph-name="quotedbl" unicode="&#x22;" horiz-adv-x="484" 
d="M450 713v-193q0 -14 -10 -24l-70 -70q-9 -10 -16.5 -7t-7.5 17v107h-64q-20 0 -20 20v150q0 20 20 20h148q20 0 20 -20zM382 611v54h-52v-54h52zM222 713v-193q0 -14 -10 -24l-70 -70q-9 -10 -16.5 -7t-7.5 17v107h-64q-20 0 -20 20v150q0 20 20 20h148q20 0 20 -20z
M154 611v54h-52v-54h52z" />
    <glyph glyph-name="quotesingle" unicode="'" horiz-adv-x="249" 
d="M219 713v-193q0 -14 -10 -24l-70 -70q-10 -10 -17.5 -7t-7.5 17v107h-64q-20 0 -20 20v150q0 20 20 20h149q20 0 20 -20zM150 611v54h-52v-54h52z" />
    <glyph glyph-name="parenleft" unicode="(" horiz-adv-x="335" 
d="M258 746l19 -5q12 -3 13.5 -10.5t-7.5 -15.5q-23 -22 -44.5 -49.5t-48.5 -73t-43.5 -107.5t-16.5 -129t16 -127.5t42.5 -104.5t47.5 -70.5t44 -47.5q10 -8 8.5 -15.5t-13.5 -11.5l-17 -4q-15 -4 -27 5q-19 15 -39 34t-51 56.5t-54 77.5t-40 96t-17 112q0 57 17 113.5
t40 97t54 79.5t51 58.5t39 35.5q12 10 27 6z" />
    <glyph glyph-name="parenright" unicode=")" horiz-adv-x="335" 
d="M77 -25l-17 4q-12 4 -13.5 11.5t8.5 15.5q23 21 44 47.5t47.5 70.5t42.5 104.5t16 127.5t-16.5 129t-43.5 107.5t-48.5 73t-44.5 49.5q-9 8 -7.5 15.5t13.5 10.5l19 5q15 4 27 -6q19 -16 39 -35.5t51 -58.5t54 -79.5t40 -97t17 -113.5q0 -56 -17 -112t-40 -96t-54 -77.5
t-51 -56.5t-39 -34q-12 -9 -27 -5z" />
    <glyph glyph-name="asterisk" unicode="*" horiz-adv-x="615" 
d="M536 628l43 -151q6 -19 -13 -25l-92 -27l57 -95q11 -16 -6 -27l-124 -89q-16 -11 -28 5l-65 84l-66 -85q-12 -15 -28 -4l-124 89q-17 11 -6 27l57 95l-92 27q-19 6 -13 25l44 151q6 19 25 14l103 -29v103q0 20 20 20h160q20 0 20 -20v-103l103 29q19 5 25 -14zM441 336
l-75 102q-14 21 9 27l121 37l-11 56l-121 -37q-23 -7 -23 17v120h-56v-120q0 -24 -23 -17l-121 37l-22 -56l121 -37q23 -6 9 -27l-75 -102l45 -33l75 103q14 19 28 0l75 -103z" />
    <glyph glyph-name="comma" unicode="," horiz-adv-x="249" 
d="M219 170v-193q0 -14 -10 -24l-70 -70q-10 -10 -17.5 -7t-7.5 17v107h-64q-20 0 -20 20v150q0 20 20 20h149q20 0 20 -20zM150 68v54h-52v-54h52z" />
    <glyph glyph-name="hyphen" unicode="-" horiz-adv-x="590" 
d="M540 238h-490q-20 0 -20 20v150q0 20 20 20h490q20 0 20 -20v-150q0 -20 -20 -20zM492 306v54h-394v-54h394z" />
    <glyph glyph-name="period" unicode="." horiz-adv-x="248" 
d="M198 0h-148q-20 0 -20 20v150q0 20 20 20h148q20 0 20 -20v-150q0 -20 -20 -20zM150 68v54h-52v-54h52z" />
    <glyph glyph-name="zero" unicode="0" horiz-adv-x="634" 
d="M318 755q120 0 203 -111.5t83 -274.5q0 -164 -83 -276t-203 -112q-121 0 -204.5 112t-83.5 276q0 163 83.5 274.5t204.5 111.5zM318 48q91 0 155 94t64 227q0 132 -64 226t-155 94t-155.5 -94t-64.5 -226q0 -133 64.5 -227t155.5 -94zM318 637q69 0 118.5 -79t49.5 -189
q0 -112 -49.5 -191t-118.5 -79t-118.5 79t-49.5 191q0 110 49.5 189t118.5 79zM318 167q35 0 68 58t33 144t-33.5 143.5t-67.5 57.5q-35 0 -68.5 -57.5t-33.5 -143.5t33.5 -144t68.5 -58z" />
    <glyph glyph-name="one" unicode="1" horiz-adv-x="445" 
d="M415 714v-693q0 -20 -20 -20h-176q-20 0 -20 20v340l-152 98q-17 11 -6 28l150 234q7 13 24 13h180q20 0 20 -20zM139 494l47 -36l60 95q8 12 16 9.5t8 -16.5v-461h61v576h-84z" />
    <glyph glyph-name="two" unicode="2" horiz-adv-x="640" 
d="M40 532l44 79q37 67 103 106t143 39q112 0 196 -84.5t84 -196.5q0 -55 -17 -98.5t-47.5 -73t-59.5 -47.5t-67 -34h171q20 0 20 -20v-181q0 -20 -20 -20h-519q-20 0 -20 20v90q0 42 9.5 78.5t22.5 62.5t37 50.5t42 38.5t48.5 30t45 22l43.5 18q64 25 77.5 36t13.5 28
q0 19 -18.5 39.5t-41.5 20.5q-37 0 -53 -31l-43 -79q-11 -18 -28 -8l-158 87q-18 11 -8 28zM530 142h-313q-11 0 -16 6t-1 16q10 30 35 53t49 34.5t67 27.5q36 15 52 22t45.5 25t43.5 36t26 47.5t12 65.5q0 75 -58.5 138.5t-141.5 63.5q-55 0 -102.5 -28t-72.5 -77l-16 -27
l54 -30l15 28q17 33 50 52.5t72 19.5q57 0 98 -44.5t41 -95.5q0 -54 -32 -81t-109 -57q-37 -15 -56 -23.5t-50.5 -28.5t-48 -41t-30 -55.5t-13.5 -77.5v-30h400v61z" />
    <glyph glyph-name="three" unicode="3" horiz-adv-x="585" 
d="M106 704l73 27q69 23 109 23q91 0 155 -64.5t64 -154.5q0 -57 -27 -106q75 -78 75 -185q0 -110 -78.5 -188.5t-188.5 -78.5q-109 0 -189 78l-55 55q-14 14 0 28l110 111q14 14 28 0l55 -55q21 -21 51 -21q29 0 50 21t21 50t-20.5 49t-50.5 20h-78q-20 0 -20 20v158
q0 20 20 20h78q10 0 16.5 7t6.5 17t-6.5 16.5t-16.5 6.5q-12 -2 -42 -11l-73 -27q-18 -7 -26 12l-53 146q-7 18 12 26zM130 124l19 -19q57 -57 139 -57q81 0 139 57.5t58 138.5q0 49 -24 92t-64 70q-16 12 -2 26q41 44 41 103q0 61 -43.5 104.5t-104.5 43.5q-38 0 -85 -19
l-25 -9l18 -51l26 9q44 16 66 16q39 0 66.5 -27.5t27.5 -66.5t-27.5 -66.5t-66.5 -27.5h-27v-57h27q60 0 101 -40.5t41 -99.5q0 -58 -42 -100t-100 -42q-60 0 -100 42l-20 19z" />
    <glyph glyph-name="four" unicode="4" horiz-adv-x="734" 
d="M602 312h82q20 0 20 -20v-150q0 -20 -20 -20h-82v-102q0 -20 -20 -20h-150q-20 0 -20 20v102h-359q-23 0 -18 22l134 574q5 17 22 17h155q23 0 18 -22l-95 -401h143v403q0 20 20 20h150q20 0 20 -20v-403zM636 243h-83q-20 0 -20 20v404h-53v-404q0 -20 -20 -20h-254
q-23 0 -18 22l94 402h-54l-112 -477h344q20 0 20 -20v-102h53v102q0 20 20 20h83v53z" />
    <glyph glyph-name="five" unicode="5" horiz-adv-x="579" 
d="M300 549l-4 -50q105 -1 179 -75.5t74 -179.5q0 -106 -74.5 -181t-180.5 -75q-64 0 -120 30t-92 83l-41 60q-11 17 6 28l121 83q17 11 28 -6l41 -61q22 -30 57 -30q28 0 48 20.5t20 48.5t-20 48t-48 20h-178q-20 0 -19 21l28 384q2 19 20 19h325q20 0 20 -20v-147
q0 -20 -20 -20h-170zM124 160l14 -21q26 -39 67.5 -61t88.5 -22q77 0 132.5 55t55.5 133q0 77 -55.5 132t-132.5 55h-50q-20 0 -19 21l11 145q2 19 20 19h166v52h-233l-22 -289h127q56 0 96 -39.5t40 -95.5t-40 -96t-96 -40q-74 0 -113 60l-14 21z" />
    <glyph glyph-name="six" unicode="6" horiz-adv-x="577" 
d="M471 545h-74q-75 0 -114 -45h6q107 0 182.5 -75.5t75.5 -183.5q0 -106 -75.5 -181.5t-182.5 -75.5q-84 0 -149.5 47t-95.5 126q-4 12 -7.5 38t-5 43.5t-1.5 21.5q2 118 28.5 207t64 138.5t89.5 80t95 40t90 9.5h74q20 0 20 -20v-150q0 -20 -20 -20zM98 226h1
q6 -73 60.5 -123.5t129.5 -50.5q79 0 134.5 55.5t55.5 133.5q0 79 -55.5 135t-134.5 56q-56 0 -103 -30q-11 -7 -16 -3.5t-2 15.5q49 199 229 199h26v53h-26q-44 0 -82.5 -9.5t-79 -37t-69 -71.5t-48 -118t-20.5 -171v-33zM289 311q-29 0 -55 -26q-9 -9 -12 -18t-3 -19v-7
q0 -28 20.5 -48.5t49.5 -20.5q28 0 48.5 20.5t20.5 48.5q0 29 -20 49.5t-49 20.5zM303 379q51 -5 87 -44.5t36 -93.5q0 -56 -40.5 -96.5t-96.5 -40.5q-57 0 -97.5 40.5t-40.5 96.5v16q1 34 28 69q5 7 20 21t23 19q1 1 8 6t10.5 5t18.5 1t44 1z" />
    <glyph glyph-name="seven" unicode="7" 
d="M30 564v151q0 20 20 20h539q20 0 20 -20v-121q0 -13 -7 -24l-326 -556q-8 -14 -24 -14h-183q-12 0 -16 7t2 17l307 520h-312q-20 0 -20 20zM540 665h-441v-52h359q12 0 16 -6.5t-2 -17.5l-303 -517h62l309 528v65z" />
    <glyph glyph-name="eight" unicode="8" horiz-adv-x="593" 
d="M487 432q76 -76 76 -184q0 -110 -78.5 -188.5t-188.5 -78.5t-188 78.5t-78 188.5q0 109 75 184q-27 51 -27 105q0 90 64 154t154 64t154.5 -64t64.5 -154q0 -55 -28 -105zM296 51q81 0 139 58t58 139q0 49 -23.5 91.5t-62.5 69.5q-17 11 -3 27q40 42 40 101
q0 61 -43.5 104.5t-104.5 43.5t-104 -43.5t-43 -104.5q0 -59 40 -101q14 -16 -3 -26q-86 -60 -86 -162q0 -81 57.5 -139t138.5 -58zM296 443q-38 0 -66 27.5t-28 66.5q0 38 28 66t66 28q39 0 66.5 -28t27.5 -66q0 -39 -27.5 -66.5t-66.5 -27.5zM296 561q-9 0 -16 -7t-7 -17
q0 -9 7 -16t16 -7q10 0 17 7t7 16q0 10 -7 17t-17 7zM296 390q58 0 100 -42t42 -100q0 -59 -41.5 -100.5t-100.5 -41.5t-100 41.5t-41 100.5t41.5 100.5t99.5 41.5zM296 177q30 0 51 21t21 50t-21 50t-51 21q-29 0 -50 -21t-21 -50t21 -50t50 -21z" />
    <glyph glyph-name="nine" unicode="9" horiz-adv-x="577" 
d="M101 191h76q74 0 116 43q-110 0 -186.5 76.5t-76.5 188.5q0 105 76.5 180t186.5 75q81 0 148 -45.5t98 -123.5q4 -14 6 -41t2 -47v-20q0 -86 -13.5 -156.5t-35.5 -118.5t-53.5 -85t-64 -58.5t-70.5 -34.5t-69 -17.5t-64 -4.5h-76q-20 0 -20 20v149q0 20 20 20zM485 477
v34q-8 78 -63.5 128t-128.5 50q-79 0 -134.5 -55.5t-55.5 -134.5q0 -80 55.5 -135.5t134.5 -55.5q55 0 103 26q11 6 15.5 2.5t1.5 -15.5q-54 -191 -236 -191h-20v-54h20q46 0 84.5 8.5t80 35t70.5 69t49.5 116.5t23.5 172zM432 499v-10q0 -12 -4 -24q-6 -16 -16 -31t-16 -22
l-7 -8q-27 -43 -96 -43q-62 0 -99 40.5t-37 97.5q0 58 37 98.5t99 40.5q57 0 98 -41.5t41 -97.5zM358 489v10q0 24 -20 43.5t-45 19.5q-31 0 -52 -19t-21 -44q0 -31 21 -52t52 -21q16 0 33 12q5 3 10.5 9t7.5 7l3 3q11 11 11 32z" />
    <glyph glyph-name="colon" unicode=":" horiz-adv-x="249" 
d="M198 0h-148q-20 0 -20 20v150q0 20 20 20h148q20 0 20 -20v-150q0 -20 -20 -20zM150 68v54h-52v-54h52zM198 383h-148q-20 0 -20 20v150q0 20 20 20h148q20 0 20 -20v-150q0 -20 -20 -20zM150 451v54h-52v-54h52z" />
    <glyph glyph-name="semicolon" unicode=";" horiz-adv-x="249" 
d="M198 383h-148q-20 0 -20 20v150q0 20 20 20h148q20 0 20 -20v-150q0 -20 -20 -20zM150 451v54h-52v-54h52zM219 170v-193q0 -14 -10 -24l-70 -70q-10 -10 -17.5 -7t-7.5 17v107h-64q-20 0 -20 20v150q0 20 20 20h149q20 0 20 -20zM150 68v54h-52v-54h52z" />
    <glyph glyph-name="question" unicode="?" horiz-adv-x="636" 
d="M42 561l40 57q40 62 105 99t135 37q22 0 35 -0.5t38.5 -2.5t42.5 -5.5t41 -11.5t40 -19.5t34 -29.5t28.5 -40.5t17.5 -53.5t7 -69q0 -27 -7.5 -51.5t-17 -41t-28 -34.5t-30 -26.5t-34.5 -24.5t-30 -21q-1 -1 -11 -7t-15.5 -10.5t-11 -13.5t-5.5 -18v-33q0 -20 -20 -20
h-147q-20 0 -20 20v73q0 37 14.5 67.5t41 52t45.5 33t46 23.5q40 19 40 32v22q0 13 -20 16.5t-74 3.5q-49 0 -82 -51l-42 -57q-12 -16 -28 -5l-123 82q-17 11 -5 28zM353 292v22q0 21 18.5 38t55.5 36q3 2 17.5 10.5t18.5 11t17 11t17.5 13t14 13t13.5 16t9 17t7 20t2 22.5
q0 96 -50.5 127t-170.5 31q-57 0 -106.5 -24t-80.5 -69l-11 -23l42 -31l20 22q44 72 136 72q101 0 134.5 -18t33.5 -87q0 -20 -11.5 -34.5t-25 -23t-46.5 -24.5q-49 -25 -76.5 -54t-27.5 -72v-22h50zM229 20v149q0 20 20 20h147q20 0 20 -20v-149q0 -20 -20 -20h-147
q-20 0 -20 20zM353 124h-50v-50h50v50z" />
    <glyph glyph-name="A" unicode="A" horiz-adv-x="863" 
d="M272 105l-44 -90q-8 -15 -23 -15h-164q-11 0 -15.5 7t0.5 17l333 697q7 15 23 15h141q17 0 23 -15l292 -698q10 -23 -15 -23h-169q-17 0 -23 16l-37 89h-322zM409 667l-287 -596h59l42 87q7 15 23 15h378q17 0 23 -15l36 -87h59l-247 596h-86zM594 226h-312
q-11 0 -15.5 7t0.5 17l168 350q7 15 23 15q1 0 8 -17l143 -349q10 -23 -15 -23zM517 294l-70 172l-84 -172h154z" />
    <glyph glyph-name="B" unicode="B" horiz-adv-x="675" 
d="M50 737h317q125 0 193 -63.5t68 -147.5q0 -67 -38 -123q55 -69 55 -178q0 -92 -67 -158.5t-195 -66.5h-333q-20 0 -20 20v697q0 20 20 20zM99 68h284q99 0 146.5 47t47.5 110q0 115 -70 164q-16 12 0 25q53 42 53 112q0 57 -50.5 99.5t-142.5 42.5h-268v-600zM171 616
h196q68 0 104 -26.5t36 -63.5q0 -100 -140 -100h-196q-20 0 -20 20v150q0 20 20 20zM220 495h194q10 0 18 7.5t8 18.5t-8 18.5t-18 7.5h-194v-52zM171 374h196q81 0 119.5 -36.5t38.5 -112.5q0 -49 -37.5 -76.5t-104.5 -27.5h-212q-20 0 -20 20v213q0 20 20 20zM219 189h183
q24 0 41 17t17 41t-17 41t-41 17h-183v-116z" />
    <glyph glyph-name="C" unicode="C" horiz-adv-x="806" 
d="M763 183l-50 -60q-56 -66 -133.5 -102.5t-163.5 -36.5q-160 0 -273 113t-113 273t113 273.5t273 113.5q85 0 162 -35.5t132 -99.5l50 -59q13 -16 -2 -28l-118 -102q-16 -13 -28 2l-51 60q-57 66 -145 66q-79 0 -134.5 -56t-55.5 -135t55.5 -134.5t134.5 -55.5
q91 0 147 68l50 61q13 14 28 2l120 -100q14 -13 2 -28zM635 224l-18 -21q-78 -94 -201 -94q-108 0 -184.5 76.5t-76.5 184.5t76.5 185t184.5 77q121 0 199 -91l18 -21l41 35l-18 21q-45 52 -108 81t-132 29q-130 0 -222.5 -92.5t-92.5 -223.5q0 -130 92.5 -222.5
t222.5 -92.5q71 0 134.5 29.5t108.5 83.5l17 21z" />
    <glyph glyph-name="D" unicode="D" horiz-adv-x="765" 
d="M50 736h285q165 0 282.5 -109t117.5 -258q0 -151 -117 -260t-283 -109h-285q-20 0 -20 20v696q0 20 20 20zM94 75h241q142 0 239 84t97 210q0 127 -97.5 216t-238.5 89h-241v-599zM167 621h168q118 0 201 -74.5t83 -177.5q0 -102 -82.5 -172t-201.5 -70h-168
q-20 0 -20 20v454q0 20 20 20zM220 190h115q87 0 149 53t62 126q0 71 -62 124.5t-149 53.5h-115v-357z" />
    <glyph glyph-name="E" unicode="E" 
d="M589 0h-539q-20 0 -20 20v696q0 20 20 20h523q20 0 20 -20v-150q0 -20 -20 -20h-354v-51h175q20 0 20 -20v-150q0 -20 -20 -20h-175v-116h370q20 0 20 -20v-149q0 -20 -20 -20zM151 141v213q0 20 20 20h175v52h-175q-20 0 -20 20v149q0 20 20 20h353v52h-425v-599h441v53
h-369q-20 0 -20 20z" />
    <glyph glyph-name="F" unicode="F" 
d="M30 20v696q0 20 20 20h523q20 0 20 -20v-150q0 -20 -20 -20h-354v-51h175q20 0 20 -20v-150q0 -20 -20 -20h-174v-285q0 -20 -20 -20h-150q-20 0 -20 20zM346 426h-175q-20 0 -20 20v149q0 20 20 20h353v52h-425v-599h52v286q0 20 20 20h175v52z" />
    <glyph glyph-name="G" unicode="G" horiz-adv-x="769" 
d="M441 406h278q20 0 20 -20v-224q0 -14 -10 -25l-11 -12q-55 -67 -133.5 -104.5t-163.5 -37.5q-162 0 -276.5 114.5t-114.5 276.5q0 155 115 268t276 113q126 0 245 -78q11 -8 18 -16l42 -45q13 -13 1 -29l-97 -123q-13 -16 -28 -1l-59 56q-45 41 -122 41q-78 0 -136 -55.5
t-58 -130.5q0 -80 58 -138.5t136 -58.5q66 0 102 33h-82q-20 0 -20 20v156q0 20 20 20zM501 290h87q20 0 20 -20v-66q0 -15 -9 -25q-60 -63 -178 -63q-112 0 -185 72.5t-73 185.5q0 109 74 184.5t184 75.5q99 0 165 -63l22 -23l36 44l-27 20q-39 37 -91.5 58.5t-104.5 21.5
q-130 0 -220 -93.5t-90 -224.5q0 -132 90 -224.5t220 -92.5q143 0 244 111v174h-164v-52z" />
    <glyph glyph-name="H" unicode="H" horiz-adv-x="684" 
d="M634 0h-149q-20 0 -20 20v321h-246v-321q0 -20 -20 -20h-149q-20 0 -20 20v697q0 20 20 20h149q20 0 20 -20v-186h246v186q0 20 20 20h149q20 0 20 -20v-697q0 -20 -20 -20zM533 668v-186q0 -20 -20 -20h-342q-20 0 -20 20v186h-52v-600h52v322q0 20 20 20h342
q20 0 20 -20v-322h53v600h-53z" />
    <glyph glyph-name="I" unicode="I" horiz-adv-x="248" 
d="M198 0h-148q-20 0 -20 20v696q0 20 20 20h148q20 0 20 -20v-696q0 -20 -20 -20zM150 68v600h-52v-600h52z" />
    <glyph glyph-name="J" unicode="J" horiz-adv-x="499" 
d="M469 718v-500q0 -89 -64 -152.5t-155 -63.5q-88 0 -155 65l-50 48q-15 14 -1 28l103 103q14 14 28 0l51 -51q9 -9 24 -9t25 9.5t10 22.5v500q0 20 20 20h144q20 0 20 -20zM350 672v-454q0 -40 -29 -69t-71 -29q-34 0 -62 20q-9 6 -18 16l-9 12l-36 -39l18 -17
q48 -45 107 -45q64 0 107.5 44t43.5 107v454h-51z" />
    <glyph glyph-name="K" unicode="K" horiz-adv-x="729" 
d="M679 2h-75q-83 0 -130 50.5t-54 112.5q-17 71 -41 115q-18 34 -61 34h-99v-292q0 -20 -20 -20h-149q-20 0 -20 20v694q0 20 20 20h149q20 0 20 -20v-214h74q17 5 45.5 33t42.5 61q17 39 45.5 68t61 44t61.5 21.5t55 6.5h75q20 0 20 -20v-148q0 -20 -20 -20h-75
q-39 -3 -49 -27q-19 -44 -57 -90q25 -23 46 -61q43 -78 61 -168l3 -11h71q20 0 20 -20v-149q0 -20 -20 -20zM630 123h-26q-12 0 -22 2.5t-16.5 8t-11 10.5t-7.5 12.5t-4.5 12t-2.5 11t-1 7.5q-23 93 -55 151q-28 49 -71 73q-20 11 -4 25q56 50 83 112q8 19 23 33t28.5 20
t29 10t22 4.5t9.5 0.5h26v52h-26q-26 0 -54 -7.5t-59.5 -31t-46.5 -60.5q-22 -51 -69.5 -93t-78.5 -42h-125q-20 0 -20 20v214h-52v-598h52v292q0 20 20 20h147q82 0 120 -70q31 -56 49 -135q3 -38 31.5 -72.5t85.5 -34.5h26v53z" />
    <glyph glyph-name="L" unicode="L" horiz-adv-x="651" 
d="M219 189h382q20 0 20 -20v-149q0 -20 -20 -20h-551q-20 0 -20 20v696q0 20 20 20h149q20 0 20 -20v-527zM98 68h455v53h-382q-20 0 -20 20v527h-53v-600z" />
    <glyph glyph-name="M" unicode="M" horiz-adv-x="995" 
d="M945 0h-149q-20 0 -20 20v412l-265 -375q-6 -9 -14 -9t-14 9l-264 375v-412q0 -20 -20 -20h-149q-20 0 -20 20v696q0 20 20 20h172q15 0 24 -13l251 -358l252 358q9 13 24 13h172q20 0 20 -20v-696q0 -20 -20 -20zM794 667l-283 -400q-6 -9 -14 -9t-14 9l-282 400h-103
v-599h53v527q0 20 20 20q3 0 12 -13l314 -447l315 447q9 13 24 13q8 0 8 -20v-527h52v599h-102z" />
    <glyph glyph-name="N" unicode="N" horiz-adv-x="678" 
d="M478 737h150q20 0 20 -20v-697q0 -20 -20 -20h-135q-15 0 -24 13l-249 355v-348q0 -20 -20 -20h-150q-20 0 -20 20v697q0 20 20 20h127q15 0 24 -13l257 -366v359q0 20 20 20zM579 68v601h-52v-485q0 -14 -8 -16.5t-16 9.5l-347 492h-57v-601h52v474q0 14 8 16.5t16 -9.5
l339 -481h65z" />
    <glyph glyph-name="O" unicode="O" horiz-adv-x="836" 
d="M418 -20q-160 0 -274 114t-114 274t114 274t274 114t274 -114t114 -274t-114 -274t-274 -114zM418 51q131 0 224 93t93 224t-93 224t-224 93t-224 -93t-93 -224t93 -224t224 -93zM418 630q109 0 186 -76.5t77 -185.5t-77 -186t-186 -77t-185.5 77t-76.5 186t76.5 185.5
t185.5 76.5zM418 559q-80 0 -135.5 -55.5t-55.5 -135.5t56 -136t135 -56q80 0 136 56t56 136q0 79 -56 135t-136 56z" />
    <glyph glyph-name="P" unicode="P" horiz-adv-x="699" 
d="M50 738h338q45 -2 92 -18t90.5 -47.5t71 -85.5t27.5 -123q0 -74 -24.5 -132.5t-65.5 -94t-90 -53.5t-101 -18h-168v-146q0 -20 -20 -20h-150q-20 0 -20 20v698q0 20 20 20zM171 234h217q85 0 149 56.5t64 173.5q0 45 -15.5 81t-39 58t-53.5 37t-56.5 21.5t-51.5 7.5h-287
v-601h53v146q0 20 20 20zM171 617h213q7 0 20.5 -2t40 -11t48 -24t38.5 -45.5t17 -70.5q0 -48 -14.5 -83t-33.5 -52.5t-44.5 -27.5t-40 -12t-27.5 -2h-217q-20 0 -20 20v290q0 20 20 20zM220 355h168q91 0 91 109q0 26 -11.5 44t-30 26t-30.5 10.5t-24 3.5h-163v-193z" />
    <glyph glyph-name="Q" unicode="Q" horiz-adv-x="902" 
d="M872 113v-157q0 -20 -20 -20h-78q-123 0 -175 87q-74 -43 -187 -43q-163 0 -272.5 112.5t-109.5 269.5q0 166 109 280.5t273 114.5q165 0 279.5 -115t114.5 -280q0 -69 -44 -174v-43v-12h90q20 0 20 -20zM794 67h-20q-52 0 -69.5 14.5t-17.5 63.5v41q0 14 5 25
q38 86 38 151q0 132 -93.5 225t-224.5 93t-224.5 -93t-93.5 -225q0 -130 93.5 -223t224.5 -93q123 0 202 79q17 17 19 -7q6 -57 39.5 -81.5t101.5 -24.5h20v55zM270 177v-16q0 -12 -16 -3q-4 2 -9 6q-96 81 -96 198q0 114 77 188.5t186 74.5t186 -74.5t77 -188.5
q0 -29 -14 -71q-8 -25 -27 -6q-63 56 -156 56q-78 0 -143 -47t-65 -117zM478 408q87 0 121 -23q0 73 -56 124t-131 51q-81 0 -133 -57t-52 -141q0 -43 11 -64q30 54 96 82t144 28zM325 138v39q0 48 46.5 79t106.5 31q41 0 79 -15.5t56 -47.5q8 -14 -2 -27q-34 -44 -86.5 -70
t-112.5 -26q-37 0 -72 14q-15 5 -15 23zM389 177h23q62 0 110 33h-44q-30 0 -59.5 -12t-29.5 -21z" />
    <glyph glyph-name="R" unicode="R" horiz-adv-x="727" 
d="M50 736h338q44 0 91 -16t90.5 -47.5t71.5 -86t28 -123.5q0 -115 -59 -192q21 -31 25 -80h42q20 0 20 -20v-150q0 -20 -20 -20h-75q-92 0 -132 69q-20 34 -22 91q-20 4 -33 4h-195v-145q0 -20 -20 -20h-150q-20 0 -20 20v696q0 20 20 20zM172 233h245q64 0 89 -25
q8 -8 10 -43q1 -19 3 -30t10 -29t26.5 -27t46.5 -9h27v53h-27q-21 0 -26.5 8t-7.5 38q-2 54 -25 77q-5 6 -13 10q-18 13 -2 26q73 63 73 181q0 55 -22 97t-56.5 64t-69.5 32.5t-67 10.5h-287v-599h53v145q0 20 20 20zM172 615h213q8 0 22 -1.5t40 -10.5t47.5 -24t37.5 -45.5
t16 -70.5q0 -43 -12 -76.5t-28.5 -51.5t-39 -29.5t-38 -15t-31.5 -4.5h-227q-20 0 -20 20v289q0 20 20 20zM220 355h177q40 0 61.5 28.5t21.5 79.5q0 46 -31 64.5t-66 18.5h-163v-191z" />
    <glyph glyph-name="S" unicode="S" horiz-adv-x="688" 
d="M313 479l123 -30q50 -11 91 -33t70.5 -52.5t45.5 -67.5q15 -36 15 -74q0 -49 -24 -93q-28 -54 -85.5 -90t-133.5 -50q-42 -5 -75 -5q-144 0 -235 76l-59 47q-16 13 -3 29l96 119q13 16 29 3l60 -48q39 -33 110 -33q22 0 43 4q35 5 56.5 17.5t26.5 22.5q-16 26 -72 39h-3
l-121 31q-77 15 -134 56t-81 98q-15 36 -15 74q0 48 23 91q29 53 85.5 89t132.5 49q36 6 73 6q109 0 192 -48l67 -37q17 -11 7 -27l-75 -135q-11 -17 -27 -7l-67 37q-39 23 -95 23q-21 0 -42 -4q-60 -8 -80 -38q16 -26 75 -38zM128 130l21 -17q74 -60 192 -60q31 0 61 6
q40 6 73.5 21t58.5 36t39 47q16 29 16 59q0 24 -10 47q-16 39 -58.5 68.5t-100.5 43.5l-124 31h-1q-48 9 -82 30.5t-47 50.5q-5 13 -5 26q0 16 9 32q32 57 130 75q26 4 52 4q76 0 131 -31l23 -13l27 47l-23 13q-68 38 -155 38q-33 0 -65 -6q-58 -10 -102 -36.5t-65 -64.5
q-16 -29 -16 -60q0 -24 10 -46q17 -40 61.5 -70t105.5 -41l123 -32q30 -6 55 -18t42 -28t25 -34q6 -13 6 -27q0 -17 -10 -33q-15 -28 -50 -48.5t-82 -27.5q-25 -4 -52 -4q-100 0 -158 48l-21 17z" />
    <glyph glyph-name="T" unicode="T" horiz-adv-x="688" 
d="M438 547v-527q0 -20 -20 -20h-149q-20 0 -20 20v527h-199q-20 0 -20 20v150q0 20 20 20h588q20 0 20 -20v-150q0 -20 -20 -20h-200zM98 616h199q20 0 20 -20v-528h53v528q0 20 20 20h199v52h-491v-52z" />
    <glyph glyph-name="U" unicode="U" horiz-adv-x="685" 
d="M655 716v-420q0 -128 -91.5 -220t-221.5 -92q-129 0 -220.5 92t-91.5 220v420q0 20 20 20h150q20 0 20 -20v-420q0 -51 36 -86.5t86 -35.5q51 0 87.5 35.5t36.5 86.5v420q0 20 20 20h149q20 0 20 -20zM534 667v-371q0 -78 -56.5 -134.5t-135.5 -56.5t-134.5 56.5
t-55.5 134.5v371h-54v-371q0 -100 72 -172t172 -72t171.5 71.5t71.5 172.5v371h-51z" />
    <glyph glyph-name="V" unicode="V" horiz-adv-x="863" 
d="M838 713l-292 -698q-6 -15 -23 -15h-141q-16 0 -23 15l-333 697q-5 10 -0.5 17t15.5 7h164q15 0 23 -15l218 -451l186 451q6 15 23 15h168q25 0 15 -23zM682 665l-216 -527q-6 -16 -23 -16q-1 0 -9 15l-253 528h-59l288 -595h84l247 595h-59z" />
    <glyph glyph-name="W" unicode="W" horiz-adv-x="1169" 
d="M1145 713l-260 -697q-6 -16 -23 -16h-152q-18 0 -22 17l-104 341l-103 -341q-4 -17 -22 -17h-153q-17 0 -23 16l-259 697q-4 10 0.5 16.5t15.5 6.5h159q17 0 23 -16l152 -406l123 405q4 17 22 17h131q18 0 22 -17l123 -405l152 406q6 16 23 16h159q11 0 15.5 -6.5
t0.5 -16.5zM1000 668l-199 -531q-6 -16 -23 -16q1 0 1 3t-1 8t-3 12l-159 524h-64l-161 -530q-4 -17 -22 -17q1 0 1 2.5t-1.5 8t-4.5 12.5l-195 524h-56l224 -600h88l146 482q3 9 8 12.5t10 0t8 -12.5l146 -482h89l224 600h-56z" />
    <glyph glyph-name="X" unicode="X" horiz-adv-x="981" 
d="M490 285l-223 -273q-8 -12 -24 -12h-196q-13 0 -16.5 7t4.5 17l333 412l-222 276q-8 10 -5 17t16 7h196q16 0 24 -12l113 -138l112 138q8 12 24 12h198q13 0 16.5 -7t-4.5 -17l-224 -277l334 -411q8 -10 4.5 -17t-16.5 -7h-199q-16 0 -24 12zM821 71l-286 351
q-11 14 0 28l176 217h-68l-139 -173q-15 -16 -28 0l-141 173h-68l178 -218q11 -14 0 -28l-283 -350h66l247 306q14 16 28 0l248 -306h70z" />
    <glyph glyph-name="Y" unicode="Y" horiz-adv-x="929" 
d="M523 379v-358q0 -20 -20 -20h-149q-20 0 -20 20v358l-278 332q-9 11 -5.5 18t16.5 7h200q15 0 25 -11l136 -164l137 164q10 11 25 11h198q13 0 16.5 -7t-4.5 -18zM606 667l-164 -195q-14 -17 -28 0l-163 195h-69l211 -252q9 -12 9 -25v-319h52v319q0 13 9 25l213 252h-70
z" />
    <glyph glyph-name="Z" unicode="Z" horiz-adv-x="692" 
d="M319 190h323q20 0 20 -20v-149q0 -20 -20 -20h-592q-20 0 -20 20v115q0 13 9 25l343 385h-332q-20 0 -20 20v150q0 20 20 20h592q20 0 20 -20v-125q0 -13 -9 -25zM99 615h402q13 0 16.5 -7.5t-5.5 -17.5l-413 -466v-55h495v53h-394q-13 0 -16.5 7.5t5.5 17.5l405 456v64
h-495v-52z" />
    <glyph glyph-name="bracketleft" unicode="[" horiz-adv-x="362" 
d="M217 115h95q20 0 20 -20v-149q0 -20 -20 -20h-262q-20 0 -20 20v835q0 20 20 20h260q20 0 20 -20v-149q0 -20 -20 -20h-93v-497zM269 50h-95q-20 0 -20 20v595q0 20 20 20h93v51h-163v-736h165v50z" />
    <glyph glyph-name="bracketright" unicode="]" horiz-adv-x="362" 
d="M30 -54v149q0 20 20 20h95v497h-93q-20 0 -20 20v149q0 20 20 20h260q20 0 20 -20v-835q0 -20 -20 -20h-262q-20 0 -20 20zM93 0h165v736h-163v-51h93q20 0 20 -20v-595q0 -20 -20 -20h-95v-50z" />
    <glyph glyph-name="a" unicode="a" horiz-adv-x="863" 
d="M272 105l-44 -90q-8 -15 -23 -15h-164q-11 0 -15.5 7t0.5 17l333 697q7 15 23 15h141q17 0 23 -15l292 -698q10 -23 -15 -23h-169q-17 0 -23 16l-37 89h-322zM409 667l-287 -596h59l42 87q7 15 23 15h378q17 0 23 -15l36 -87h59l-247 596h-86zM594 226h-312
q-11 0 -15.5 7t0.5 17l168 350q7 15 23 15q1 0 8 -17l143 -349q10 -23 -15 -23zM517 294l-70 172l-84 -172h154z" />
    <glyph glyph-name="b" unicode="b" horiz-adv-x="675" 
d="M50 737h317q125 0 193 -63.5t68 -147.5q0 -67 -38 -123q55 -69 55 -178q0 -92 -67 -158.5t-195 -66.5h-333q-20 0 -20 20v697q0 20 20 20zM99 68h284q99 0 146.5 47t47.5 110q0 115 -70 164q-16 12 0 25q53 42 53 112q0 57 -50.5 99.5t-142.5 42.5h-268v-600zM171 616
h196q68 0 104 -26.5t36 -63.5q0 -100 -140 -100h-196q-20 0 -20 20v150q0 20 20 20zM220 495h194q10 0 18 7.5t8 18.5t-8 18.5t-18 7.5h-194v-52zM171 374h196q81 0 119.5 -36.5t38.5 -112.5q0 -49 -37.5 -76.5t-104.5 -27.5h-212q-20 0 -20 20v213q0 20 20 20zM219 189h183
q24 0 41 17t17 41t-17 41t-41 17h-183v-116z" />
    <glyph glyph-name="c" unicode="c" horiz-adv-x="806" 
d="M763 183l-50 -60q-56 -66 -133.5 -102.5t-163.5 -36.5q-160 0 -273 113t-113 273t113 273.5t273 113.5q85 0 162 -35.5t132 -99.5l50 -59q13 -16 -2 -28l-118 -102q-16 -13 -28 2l-51 60q-57 66 -145 66q-79 0 -134.5 -56t-55.5 -135t55.5 -134.5t134.5 -55.5
q91 0 147 68l50 61q13 14 28 2l120 -100q14 -13 2 -28zM635 224l-18 -21q-78 -94 -201 -94q-108 0 -184.5 76.5t-76.5 184.5t76.5 185t184.5 77q121 0 199 -91l18 -21l41 35l-18 21q-45 52 -108 81t-132 29q-130 0 -222.5 -92.5t-92.5 -223.5q0 -130 92.5 -222.5
t222.5 -92.5q71 0 134.5 29.5t108.5 83.5l17 21z" />
    <glyph glyph-name="d" unicode="d" horiz-adv-x="765" 
d="M50 736h285q165 0 282.5 -109t117.5 -258q0 -151 -117 -260t-283 -109h-285q-20 0 -20 20v696q0 20 20 20zM94 75h241q142 0 239 84t97 210q0 127 -97.5 216t-238.5 89h-241v-599zM167 621h168q118 0 201 -74.5t83 -177.5q0 -102 -82.5 -172t-201.5 -70h-168
q-20 0 -20 20v454q0 20 20 20zM220 190h115q87 0 149 53t62 126q0 71 -62 124.5t-149 53.5h-115v-357z" />
    <glyph glyph-name="e" unicode="e" 
d="M589 0h-539q-20 0 -20 20v696q0 20 20 20h523q20 0 20 -20v-150q0 -20 -20 -20h-354v-51h175q20 0 20 -20v-150q0 -20 -20 -20h-175v-116h370q20 0 20 -20v-149q0 -20 -20 -20zM151 141v213q0 20 20 20h175v52h-175q-20 0 -20 20v149q0 20 20 20h353v52h-425v-599h441v53
h-369q-20 0 -20 20z" />
    <glyph glyph-name="f" unicode="f" 
d="M30 20v696q0 20 20 20h523q20 0 20 -20v-150q0 -20 -20 -20h-354v-51h175q20 0 20 -20v-150q0 -20 -20 -20h-174v-285q0 -20 -20 -20h-150q-20 0 -20 20zM346 426h-175q-20 0 -20 20v149q0 20 20 20h353v52h-425v-599h52v286q0 20 20 20h175v52z" />
    <glyph glyph-name="g" unicode="g" horiz-adv-x="769" 
d="M441 406h278q20 0 20 -20v-224q0 -14 -10 -25l-11 -12q-55 -67 -133.5 -104.5t-163.5 -37.5q-162 0 -276.5 114.5t-114.5 276.5q0 155 115 268t276 113q126 0 245 -78q11 -8 18 -16l42 -45q13 -13 1 -29l-97 -123q-13 -16 -28 -1l-59 56q-45 41 -122 41q-78 0 -136 -55.5
t-58 -130.5q0 -80 58 -138.5t136 -58.5q66 0 102 33h-82q-20 0 -20 20v156q0 20 20 20zM501 290h87q20 0 20 -20v-66q0 -15 -9 -25q-60 -63 -178 -63q-112 0 -185 72.5t-73 185.5q0 109 74 184.5t184 75.5q99 0 165 -63l22 -23l36 44l-27 20q-39 37 -91.5 58.5t-104.5 21.5
q-130 0 -220 -93.5t-90 -224.5q0 -132 90 -224.5t220 -92.5q143 0 244 111v174h-164v-52z" />
    <glyph glyph-name="h" unicode="h" horiz-adv-x="684" 
d="M634 0h-149q-20 0 -20 20v321h-246v-321q0 -20 -20 -20h-149q-20 0 -20 20v697q0 20 20 20h149q20 0 20 -20v-186h246v186q0 20 20 20h149q20 0 20 -20v-697q0 -20 -20 -20zM533 668v-186q0 -20 -20 -20h-342q-20 0 -20 20v186h-52v-600h52v322q0 20 20 20h342
q20 0 20 -20v-322h53v600h-53z" />
    <glyph glyph-name="i" unicode="i" horiz-adv-x="248" 
d="M198 0h-148q-20 0 -20 20v696q0 20 20 20h148q20 0 20 -20v-696q0 -20 -20 -20zM150 68v600h-52v-600h52z" />
    <glyph glyph-name="j" unicode="j" horiz-adv-x="499" 
d="M469 718v-500q0 -89 -64 -152.5t-155 -63.5q-88 0 -155 65l-50 48q-15 14 -1 28l103 103q14 14 28 0l51 -51q9 -9 24 -9t25 9.5t10 22.5v500q0 20 20 20h144q20 0 20 -20zM350 672v-454q0 -40 -29 -69t-71 -29q-34 0 -62 20q-9 6 -18 16l-9 12l-36 -39l18 -17
q48 -45 107 -45q64 0 107.5 44t43.5 107v454h-51z" />
    <glyph glyph-name="k" unicode="k" horiz-adv-x="729" 
d="M679 2h-75q-83 0 -130 50.5t-54 112.5q-17 71 -41 115q-18 34 -61 34h-99v-292q0 -20 -20 -20h-149q-20 0 -20 20v694q0 20 20 20h149q20 0 20 -20v-214h74q17 5 45.5 33t42.5 61q17 39 45.5 68t61 44t61.5 21.5t55 6.5h75q20 0 20 -20v-148q0 -20 -20 -20h-75
q-39 -3 -49 -27q-19 -44 -57 -90q25 -23 46 -61q43 -78 61 -168l3 -11h71q20 0 20 -20v-149q0 -20 -20 -20zM630 123h-26q-12 0 -22 2.5t-16.5 8t-11 10.5t-7.5 12.5t-4.5 12t-2.5 11t-1 7.5q-23 93 -55 151q-28 49 -71 73q-20 11 -4 25q56 50 83 112q8 19 23 33t28.5 20
t29 10t22 4.5t9.5 0.5h26v52h-26q-26 0 -54 -7.5t-59.5 -31t-46.5 -60.5q-22 -51 -69.5 -93t-78.5 -42h-125q-20 0 -20 20v214h-52v-598h52v292q0 20 20 20h147q82 0 120 -70q31 -56 49 -135q3 -38 31.5 -72.5t85.5 -34.5h26v53z" />
    <glyph glyph-name="l" unicode="l" horiz-adv-x="651" 
d="M219 189h382q20 0 20 -20v-149q0 -20 -20 -20h-551q-20 0 -20 20v696q0 20 20 20h149q20 0 20 -20v-527zM98 68h455v53h-382q-20 0 -20 20v527h-53v-600z" />
    <glyph glyph-name="m" unicode="m" horiz-adv-x="995" 
d="M945 0h-149q-20 0 -20 20v412l-265 -375q-6 -9 -14 -9t-14 9l-264 375v-412q0 -20 -20 -20h-149q-20 0 -20 20v696q0 20 20 20h172q15 0 24 -13l251 -358l252 358q9 13 24 13h172q20 0 20 -20v-696q0 -20 -20 -20zM794 667l-283 -400q-6 -9 -14 -9t-14 9l-282 400h-103
v-599h53v527q0 20 20 20q3 0 12 -13l314 -447l315 447q9 13 24 13q8 0 8 -20v-527h52v599h-102z" />
    <glyph glyph-name="n" unicode="n" horiz-adv-x="678" 
d="M478 737h150q20 0 20 -20v-697q0 -20 -20 -20h-135q-15 0 -24 13l-249 355v-348q0 -20 -20 -20h-150q-20 0 -20 20v697q0 20 20 20h127q15 0 24 -13l257 -366v359q0 20 20 20zM579 68v601h-52v-485q0 -14 -8 -16.5t-16 9.5l-347 492h-57v-601h52v474q0 14 8 16.5t16 -9.5
l339 -481h65z" />
    <glyph glyph-name="o" unicode="o" horiz-adv-x="836" 
d="M418 -20q-160 0 -274 114t-114 274t114 274t274 114t274 -114t114 -274t-114 -274t-274 -114zM418 51q131 0 224 93t93 224t-93 224t-224 93t-224 -93t-93 -224t93 -224t224 -93zM418 630q109 0 186 -76.5t77 -185.5t-77 -186t-186 -77t-185.5 77t-76.5 186t76.5 185.5
t185.5 76.5zM418 559q-80 0 -135.5 -55.5t-55.5 -135.5t56 -136t135 -56q80 0 136 56t56 136q0 79 -56 135t-136 56z" />
    <glyph glyph-name="p" unicode="p" horiz-adv-x="699" 
d="M50 738h338q45 -2 92 -18t90.5 -47.5t71 -85.5t27.5 -123q0 -74 -24.5 -132.5t-65.5 -94t-90 -53.5t-101 -18h-168v-146q0 -20 -20 -20h-150q-20 0 -20 20v698q0 20 20 20zM171 234h217q85 0 149 56.5t64 173.5q0 45 -15.5 81t-39 58t-53.5 37t-56.5 21.5t-51.5 7.5h-287
v-601h53v146q0 20 20 20zM171 617h213q7 0 20.5 -2t40 -11t48 -24t38.5 -45.5t17 -70.5q0 -48 -14.5 -83t-33.5 -52.5t-44.5 -27.5t-40 -12t-27.5 -2h-217q-20 0 -20 20v290q0 20 20 20zM220 355h168q91 0 91 109q0 26 -11.5 44t-30 26t-30.5 10.5t-24 3.5h-163v-193z" />
    <glyph glyph-name="q" unicode="q" horiz-adv-x="902" 
d="M872 113v-157q0 -20 -20 -20h-78q-123 0 -175 87q-74 -43 -187 -43q-163 0 -272.5 112.5t-109.5 269.5q0 166 109 280.5t273 114.5q165 0 279.5 -115t114.5 -280q0 -69 -44 -174v-43v-12h90q20 0 20 -20zM794 67h-20q-52 0 -69.5 14.5t-17.5 63.5v41q0 14 5 25
q38 86 38 151q0 132 -93.5 225t-224.5 93t-224.5 -93t-93.5 -225q0 -130 93.5 -223t224.5 -93q123 0 202 79q17 17 19 -7q6 -57 39.5 -81.5t101.5 -24.5h20v55zM270 177v-16q0 -12 -16 -3q-4 2 -9 6q-96 81 -96 198q0 114 77 188.5t186 74.5t186 -74.5t77 -188.5
q0 -29 -14 -71q-8 -25 -27 -6q-63 56 -156 56q-78 0 -143 -47t-65 -117zM478 408q87 0 121 -23q0 73 -56 124t-131 51q-81 0 -133 -57t-52 -141q0 -43 11 -64q30 54 96 82t144 28zM325 138v39q0 48 46.5 79t106.5 31q41 0 79 -15.5t56 -47.5q8 -14 -2 -27q-34 -44 -86.5 -70
t-112.5 -26q-37 0 -72 14q-15 5 -15 23zM389 177h23q62 0 110 33h-44q-30 0 -59.5 -12t-29.5 -21z" />
    <glyph glyph-name="r" unicode="r" horiz-adv-x="727" 
d="M50 736h338q44 0 91 -16t90.5 -47.5t71.5 -86t28 -123.5q0 -115 -59 -192q21 -31 25 -80h42q20 0 20 -20v-150q0 -20 -20 -20h-75q-92 0 -132 69q-20 34 -22 91q-20 4 -33 4h-195v-145q0 -20 -20 -20h-150q-20 0 -20 20v696q0 20 20 20zM172 233h245q64 0 89 -25
q8 -8 10 -43q1 -19 3 -30t10 -29t26.5 -27t46.5 -9h27v53h-27q-21 0 -26.5 8t-7.5 38q-2 54 -25 77q-5 6 -13 10q-18 13 -2 26q73 63 73 181q0 55 -22 97t-56.5 64t-69.5 32.5t-67 10.5h-287v-599h53v145q0 20 20 20zM172 615h213q8 0 22 -1.5t40 -10.5t47.5 -24t37.5 -45.5
t16 -70.5q0 -43 -12 -76.5t-28.5 -51.5t-39 -29.5t-38 -15t-31.5 -4.5h-227q-20 0 -20 20v289q0 20 20 20zM220 355h177q40 0 61.5 28.5t21.5 79.5q0 46 -31 64.5t-66 18.5h-163v-191z" />
    <glyph glyph-name="s" unicode="s" horiz-adv-x="688" 
d="M313 479l123 -30q157 -36 207 -153q15 -36 15 -74q0 -49 -24 -93q-28 -54 -85.5 -90t-133.5 -50q-42 -5 -75 -5q-144 0 -235 76l-59 47q-16 13 -3 29l96 119q13 16 29 3l60 -48q39 -33 110 -33q22 0 43 4q35 5 56.5 17.5t26.5 22.5q-16 26 -72 39h-3l-121 31
q-77 15 -134 56t-81 98q-15 36 -15 74q0 48 23 91q29 53 85.5 89t132.5 49q36 6 73 6q109 0 192 -48l67 -37q17 -11 7 -27l-75 -135q-11 -17 -27 -7l-67 37q-39 23 -95 23q-21 0 -42 -4q-60 -8 -80 -38q16 -26 75 -38zM128 130l21 -17q74 -60 192 -60q31 0 61 6
q60 10 105 37.5t66 66.5q16 29 16 59q0 24 -10 47q-16 39 -58.5 68.5t-100.5 43.5l-124 31h-1q-101 19 -129 81q-5 13 -5 26q0 16 9 32q32 57 130 75q26 4 52 4q76 0 131 -31l23 -13l27 47l-23 13q-68 38 -155 38q-33 0 -65 -6q-122 -21 -167 -101q-16 -29 -16 -60
q0 -24 10 -46q17 -40 61.5 -70t105.5 -41l123 -32q96 -21 122 -80q6 -13 6 -27q0 -17 -10 -33q-33 -60 -132 -76q-25 -4 -52 -4q-100 0 -158 48l-21 17z" />
    <glyph glyph-name="t" unicode="t" horiz-adv-x="688" 
d="M438 547v-527q0 -20 -20 -20h-149q-20 0 -20 20v527h-199q-20 0 -20 20v150q0 20 20 20h588q20 0 20 -20v-150q0 -20 -20 -20h-200zM98 616h199q20 0 20 -20v-528h53v528q0 20 20 20h199v52h-491v-52z" />
    <glyph glyph-name="u" unicode="u" horiz-adv-x="685" 
d="M655 716v-420q0 -128 -91.5 -220t-221.5 -92q-129 0 -220.5 92t-91.5 220v420q0 20 20 20h150q20 0 20 -20v-420q0 -51 36 -86.5t86 -35.5q51 0 87.5 35.5t36.5 86.5v420q0 20 20 20h149q20 0 20 -20zM534 667v-371q0 -78 -56.5 -134.5t-135.5 -56.5t-134.5 56.5
t-55.5 134.5v371h-54v-371q0 -100 72 -172t172 -72t171.5 71.5t71.5 172.5v371h-51z" />
    <glyph glyph-name="v" unicode="v" horiz-adv-x="863" 
d="M838 713l-292 -698q-6 -15 -23 -15h-141q-16 0 -23 15l-333 697q-5 10 -0.5 17t15.5 7h164q15 0 23 -15l218 -451l186 451q6 15 23 15h168q25 0 15 -23zM682 665l-216 -527q-6 -16 -23 -16q-1 0 -9 15l-253 528h-59l288 -595h84l247 595h-59z" />
    <glyph glyph-name="w" unicode="w" horiz-adv-x="1169" 
d="M1145 713l-260 -697q-6 -16 -23 -16h-152q-18 0 -22 17l-104 341l-103 -341q-4 -17 -22 -17h-153q-17 0 -23 16l-259 697q-4 10 0.5 16.5t15.5 6.5h159q17 0 23 -16l152 -406l123 405q4 17 22 17h131q18 0 22 -17l123 -405l152 406q6 16 23 16h159q11 0 15.5 -6.5
t0.5 -16.5zM1000 668l-199 -531q-6 -16 -23 -16q1 0 1 3t-1 8t-3 12l-159 524h-64l-161 -530q-4 -17 -22 -17q1 0 1 2.5t-1.5 8t-4.5 12.5l-195 524h-56l224 -600h88l146 482q3 9 8 12.5t10 0t8 -12.5l146 -482h89l224 600h-56z" />
    <glyph glyph-name="x" unicode="x" horiz-adv-x="981" 
d="M490 285l-223 -273q-8 -12 -24 -12h-196q-13 0 -16.5 7t4.5 17l333 412l-222 276q-8 10 -5 17t16 7h196q16 0 24 -12l113 -138l112 138q8 12 24 12h198q13 0 16.5 -7t-4.5 -17l-224 -277l334 -411q8 -10 4.5 -17t-16.5 -7h-199q-16 0 -24 12zM821 71l-286 351
q-11 14 0 28l176 217h-68l-139 -173q-15 -16 -28 0l-141 173h-68l178 -218q11 -14 0 -28l-283 -350h66l247 306q14 16 28 0l248 -306h70z" />
    <glyph glyph-name="y" unicode="y" horiz-adv-x="929" 
d="M523 379v-358q0 -20 -20 -20h-149q-20 0 -20 20v358l-278 332q-9 11 -5.5 18t16.5 7h200q15 0 25 -11l136 -164l137 164q10 11 25 11h198q13 0 16.5 -7t-4.5 -18zM606 667l-164 -195q-14 -17 -28 0l-163 195h-69l211 -252q9 -12 9 -25v-319h52v319q0 13 9 25l213 252h-70
z" />
    <glyph glyph-name="z" unicode="z" horiz-adv-x="692" 
d="M319 190h323q20 0 20 -20v-149q0 -20 -20 -20h-592q-20 0 -20 20v115q0 13 9 25l343 385h-332q-20 0 -20 20v150q0 20 20 20h592q20 0 20 -20v-125q0 -13 -9 -25zM99 615h402q13 0 16.5 -7.5t-5.5 -17.5l-413 -466v-55h495v53h-394q-13 0 -16.5 7.5t5.5 17.5l405 456v64
h-495v-52z" />
    <glyph glyph-name="braceleft" unicode="{" horiz-adv-x="292" 
d="M260 764l-2 -20q-1 -17 -21 -19q-16 0 -31 -2t-32 -7.5t-27.5 -17t-10.5 -28.5q0 -16 2.5 -63.5t2.5 -75.5q0 -119 -39 -163q39 -44 39 -162q0 -28 -2.5 -75.5t-2.5 -63.5q0 -17 10.5 -28.5t27.5 -17t32 -7.5t31 -2q20 -2 21 -19l2 -20q2 -22 -19 -22q-27 1 -52 4.5
t-58.5 14.5t-54 36t-20.5 61q0 19 2 72t2 80q0 92 -17 112q-1 2 -4 4.5t-4 4t-2.5 3.5t-2 4.5t-0.5 5.5v30q0 4 1.5 7t2.5 4.5t4.5 5.5t4.5 5q17 21 17 112q0 28 -2 81t-2 72q0 36 20.5 61t54 36t58.5 14.5t52 4.5q21 0 19 -22z" />
    <glyph glyph-name="braceright" unicode="}" horiz-adv-x="292" 
d="M32 -27l2 20q1 17 21 19q16 0 31 2t32 7.5t27.5 17t10.5 28.5q0 16 -2.5 63.5t-2.5 75.5q0 118 39 162q-39 44 -39 163q0 28 2.5 75.5t2.5 63.5q0 17 -10.5 28.5t-27.5 17t-32 7.5t-31 2q-20 2 -21 19l-2 20q-2 22 19 22q27 -1 52 -4.5t58.5 -14.5t54 -36t20.5 -61
q0 -19 -2 -72t-2 -81q0 -91 17 -112q1 -2 4 -4.5t4 -4t2.5 -3.5t2 -4.5t0.5 -5.5v-30q0 -4 -1.5 -7t-2.5 -4.5t-4.5 -5.5t-4.5 -5q-17 -20 -17 -112q0 -27 2 -80t2 -72q0 -36 -20.5 -61t-54 -36t-58.5 -14.5t-52 -4.5q-21 0 -19 22z" />
    <glyph glyph-name="uni00A0" unicode="&#xa0;" horiz-adv-x="444" 
 />
    <glyph glyph-name="exclamdown" unicode="&#xa1;" horiz-adv-x="247" 
d="M30 495v-475q0 -20 20 -20h147q20 0 20 20v475q0 20 -20 20h-147q-20 0 -20 -20zM154 65h-50v376h50v-376zM30 716v-149q0 -20 20 -20h147q20 0 20 20v149q0 20 -20 20h-147q-20 0 -20 -20zM154 612h-50v50h50v-50z" />
    <glyph glyph-name="questiondown" unicode="&#xbf;" horiz-adv-x="636" 
d="M42 196l40 -57q40 -62 105 -99t135 -37q22 0 35 0.5t38.5 2.5t42.5 5.5t41 11.5t40 19.5t34 29.5t28.5 40.5t17.5 53.5t7 69q0 27 -7.5 51.5t-17 41t-28 34.5t-30 26.5t-34.5 24.5t-30 21q-1 1 -11 7t-15.5 10.5t-11 13.5t-5.5 18v33q0 20 -20 20h-147q-20 0 -20 -20v-73
q0 -37 14.5 -67.5t41 -52t45.5 -33t46 -23.5q40 -19 40 -32v-22q0 -13 -20 -16.5t-74 -3.5q-49 0 -82 51l-42 57q-12 16 -28 5l-123 -82q-17 -11 -5 -28zM353 465v-22q0 -21 18.5 -38t55.5 -36q3 -2 17.5 -10.5t18.5 -11t17 -11t17.5 -13t14 -13t13.5 -16t9 -17t7 -20
t2 -22.5q0 -96 -50.5 -127t-170.5 -31q-57 0 -106.5 24t-80.5 69l-11 23l42 31l20 -22q44 -72 136 -72q101 0 134.5 18t33.5 87q0 20 -11.5 34.5t-25 23t-46.5 24.5q-49 25 -76.5 54t-27.5 72v22h50zM229 737v-149q0 -20 20 -20h147q20 0 20 20v149q0 20 -20 20h-147
q-20 0 -20 -20zM353 633h-50v50h50v-50z" />
    <glyph glyph-name="uni0401" unicode="&#x401;" 
d="M513 801h-148q-20 0 -20 20v150q0 20 20 20h148q20 0 20 -20v-150q0 -20 -20 -20zM465 869v54h-52v-54h52zM589 0h-539q-20 0 -20 20v696q0 20 20 20h523q20 0 20 -20v-150q0 -20 -20 -20h-354v-51h175q20 0 20 -20v-150q0 -20 -20 -20h-175v-116h370q20 0 20 -20v-149
q0 -20 -20 -20zM151 141v213q0 20 20 20h175v52h-175q-20 0 -20 20v149q0 20 20 20h353v52h-425v-599h441v53h-369q-20 0 -20 20zM228 801h-148q-20 0 -20 20v150q0 20 20 20h148q20 0 20 -20v-150q0 -20 -20 -20zM180 869v54h-52v-54h52z" />
    <glyph glyph-name="uni0410" unicode="&#x410;" horiz-adv-x="863" 
d="M272 105l-44 -90q-8 -15 -23 -15h-164q-11 0 -15.5 7t0.5 17l333 697q7 15 23 15h141q17 0 23 -15l292 -698q10 -23 -15 -23h-169q-17 0 -23 16l-37 89h-322zM409 667l-287 -596h59l42 87q7 15 23 15h378q17 0 23 -15l36 -87h59l-247 596h-86zM594 226h-312
q-11 0 -15.5 7t0.5 17l168 350q7 15 23 15q1 0 8 -17l143 -349q10 -23 -15 -23zM517 294l-70 172l-84 -172h154z" />
    <glyph glyph-name="uni0411" unicode="&#x411;" horiz-adv-x="675" 
d="M220 495h163q128 0 195 -71t67 -170q0 -102 -69.5 -178t-192.5 -76h-333q-20 0 -20 20v697q0 20 20 20h551q20 0 20 -20v-150q0 -20 -20 -20h-381v-52zM99 68h284q94 0 144 54.5t50 131.5q0 80 -52 126t-142 46h-212q-20 0 -20 20v150q0 20 20 20h382v52h-454v-600z
M171 374h212q67 0 104.5 -31.5t37.5 -88.5q0 -54 -35 -93.5t-107 -39.5h-212q-20 0 -20 20v213q0 20 20 20zM220 189h163q73 0 73 65v1q0 10 -1.5 16.5t-7.5 15.5t-22.5 13.5t-41.5 4.5h-163v-116z" />
    <glyph glyph-name="uni0412" unicode="&#x412;" horiz-adv-x="675" 
d="M50 737h317q125 0 193 -63.5t68 -147.5q0 -67 -38 -123q55 -69 55 -178q0 -92 -67 -158.5t-195 -66.5h-333q-20 0 -20 20v697q0 20 20 20zM99 68h284q99 0 146.5 47t47.5 110q0 115 -70 164q-16 12 0 25q53 42 53 112q0 57 -50.5 99.5t-142.5 42.5h-268v-600zM171 616
h196q68 0 104 -26.5t36 -63.5q0 -100 -140 -100h-196q-20 0 -20 20v150q0 20 20 20zM220 495h194q10 0 18 7.5t8 18.5t-8 18.5t-18 7.5h-194v-52zM171 374h196q81 0 119.5 -36.5t38.5 -112.5q0 -49 -37.5 -76.5t-104.5 -27.5h-212q-20 0 -20 20v213q0 20 20 20zM219 189h183
q24 0 41 17t17 41t-17 41t-41 17h-183v-116z" />
    <glyph glyph-name="uni0413" unicode="&#x413;" horiz-adv-x="636" 
d="M219 547v-527q0 -20 -20 -20h-149q-20 0 -20 20v696q0 20 20 20h551q20 0 20 -20v-149q0 -20 -20 -20h-382zM151 68v527q0 20 20 20h382v53h-455v-600h53z" />
    <glyph glyph-name="uni0414" unicode="&#x414;" horiz-adv-x="837" 
d="M787 -92h-148q-20 0 -20 20v72h-401v-72q0 -20 -20 -20h-148q-20 0 -20 20v240q0 20 20 20h50q25 43 50.5 178.5t36.5 282.5l5 68q2 19 20 19h486q20 0 20 -20v-528h69q20 0 20 -20v-240q0 -20 -20 -20zM255 668v-24q0 -4 -3 -40t-11.5 -105t-19.5 -128
q-12 -68 -26.5 -119t-25 -75t-21.5 -38t-16 -16.5t-8 -2.5h-26v-144h52v72q0 20 20 20h497q20 0 20 -20v-72h52v144h-69q-20 0 -20 20v528h-395zM578 120h-353q-25 0 -14 23q34 73 61 219q18 103 31 235q1 19 21 19h254q20 0 20 -20v-456q0 -20 -20 -20zM530 548h-164
q-27 -242 -65 -360h229v360z" />
    <glyph glyph-name="uni0415" unicode="&#x415;" 
d="M589 0h-539q-20 0 -20 20v696q0 20 20 20h523q20 0 20 -20v-150q0 -20 -20 -20h-354v-51h175q20 0 20 -20v-150q0 -20 -20 -20h-175v-116h370q20 0 20 -20v-149q0 -20 -20 -20zM151 141v213q0 20 20 20h175v52h-175q-20 0 -20 20v149q0 20 20 20h353v52h-425v-599h441v53
h-369q-20 0 -20 20z" />
    <glyph glyph-name="uni0416" unicode="&#x416;" horiz-adv-x="1060" 
d="M1010 0h-75q-84 0 -131 50.5t-54 112.5q-17 71 -41 115q-19 35 -62 35h-20v-293q0 -20 -20 -20h-149q-20 0 -20 20v293h-25q-43 0 -62 -35q-23 -42 -41 -115q-7 -62 -54 -112.5t-131 -50.5h-75q-20 0 -20 20v149q0 20 20 20h72v4q0 1 3.5 14t6 24t8.5 29.5t12 35
t14.5 36.5t18.5 38q20 36 46 60q-36 43 -56 90q-3 7 -9.5 12.5t-13 8t-13 4.5t-10.5 3h-4h-75q-20 0 -20 20v148q0 20 20 20h75q36 0 75 -11t83 -44.5t66 -85.5q14 -32 43 -60t46 -33v214q0 20 20 20h149q20 0 20 -20v-212q19 9 45 35t39 57q17 39 46 68t61.5 44t61.5 21.5
t55 6.5h75q20 0 20 -20v-149q0 -20 -20 -20h-75q-40 -2 -50 -26q-20 -47 -56 -91q26 -24 46 -60q17 -30 32 -71.5t21 -64t8 -33.5l3 -12h71q20 0 20 -20v-149q0 -20 -20 -20zM961 121h-26q-13 0 -23 3t-16.5 8t-11 10.5t-7.5 12.5t-4.5 12t-2.5 11t-1 7q-25 99 -54 152
q-29 51 -72 74q-19 10 -3 25q56 50 83 112q8 19 23 33t28.5 20t29 10t22 4.5t9.5 0.5h26v52h-26q-43 0 -90.5 -23t-70.5 -76q-22 -51 -69.5 -93t-78.5 -42h-47q-20 0 -20 20v214h-53v-214q0 -20 -20 -20h-52q-31 0 -78.5 41.5t-69.5 92.5q-23 53 -70.5 76.5t-90.5 23.5h-26
v-52h26q3 0 9.5 -0.5t22 -4.5t29.5 -10t29 -20t23 -33q28 -65 82 -112q17 -14 -3 -25q-45 -25 -72 -74q-34 -63 -55 -156q-1 -7 -3 -14t-8 -19t-20 -19.5t-34 -7.5h-26v-53h26q57 0 85.5 34.5t31.5 72.5q19 81 49 136q39 70 122 70h73q20 0 20 -20v-293h53v293q0 20 20 20
h69q82 0 121 -70q30 -55 49 -136q3 -38 31.5 -72.5t85.5 -34.5h26v53z" />
    <glyph glyph-name="uni0417" unicode="&#x417;" horiz-adv-x="687" 
d="M601 406l1 -1q55 -66 55 -159q0 -16 -2 -30q-1 -30 -7.5 -58t-27.5 -61.5t-53.5 -58.5t-90.5 -41.5t-133 -16.5q-69 0 -123.5 14t-87 37.5t-54.5 49t-31.5 55.5t-13 49.5t-3.5 37.5v90q0 20 20 20h152q20 0 20 -20v-90q0 -51 105 -51h16q73 0 109 30q13 11 13 44
q0 23 -11 36q-19 22 -82 22h-83q-20 0 -20 20v152q0 20 20 20h83q71 0 71 22q0 14 -34 30.5t-75 16.5q-45 0 -78.5 -15t-33.5 -29v-69q0 -20 -20 -20h-152q-20 0 -20 20v76q0 95 87 162t217 67q123 0 213 -69.5t90 -159.5q0 -67 -36 -122zM100 264v-41q0 -27 9 -53
t32.5 -55.5t75.5 -47.5t126 -18q23 0 47 2.5t59.5 12t62.5 25.5t48.5 47.5t24.5 72.5q2 18 2 23v12q0 70 -39 117q-15 18 -31 29q-17 11 -1 24q52 43 52 114q0 57 -67.5 108.5t-166.5 51.5q-98 0 -166 -48.5t-68 -111.5v-26h53v26q0 37 51.5 71.5t129.5 34.5q75 0 127.5 -37
t52.5 -69q0 -101 -142 -101h-34v-53h34q96 0 135 -47q27 -32 27 -82v-2q0 -45 -13 -69q-37 -71 -178 -71q-92 0 -141 33t-49 87v41h-53z" />
    <glyph glyph-name="uni0418" unicode="&#x418;" horiz-adv-x="678" 
d="M628 0h-150q-20 0 -20 20v348l-249 -355q-9 -13 -24 -13h-135q-20 0 -20 20v697q0 20 20 20h150q20 0 20 -20v-359l257 366q9 13 24 13h127q20 0 20 -20v-697q0 -20 -20 -20zM522 669l-347 -492q-8 -12 -16 -9.5t-8 16.5v485h-52v-601h65l339 481q8 12 16 9.5t8 -16.5
v-474h52v601h-57z" />
    <glyph glyph-name="uni0419" unicode="&#x419;" horiz-adv-x="682" 
d="M571 898l-24 -65q-12 -34 -62.5 -65t-148.5 -31q-97 0 -143 30.5t-57 65.5l-25 65q-8 18 11 26l142 58q18 8 26 -11l15 -44h31h42l14 43q8 20 26 12l142 -59q19 -6 11 -25zM441 906l-6 -19q-5 -15 -16 -20q-30 -14 -83 -14q-45 0 -73 14q-10 4 -15 20l-7 19l-52 -21
l9 -32q4 -6 12 -14.5t43.5 -23t82.5 -14.5q39 0 69.5 8t44 18t22.5 18t12 8l10 32zM652 717v-697q0 -20 -20 -20h-150q-20 0 -20 20v349l-255 -357q-9 -12 -24 -12h-133q-20 0 -20 20v697q0 20 20 20h150q20 0 20 -20v-359l255 366q9 13 24 13h133q20 0 20 -20zM525 674
l-344 -501q-8 -12 -16 -9.5t-8 16.5v494h-53v-600h64l333 481q8 12 16 9t8 -17v-473h53v600h-53z" />
    <glyph glyph-name="uni041A" unicode="&#x41a;" horiz-adv-x="729" 
d="M679 2h-75q-83 0 -130 50.5t-54 112.5q-17 71 -41 115q-18 34 -61 34h-99v-292q0 -20 -20 -20h-149q-20 0 -20 20v694q0 20 20 20h149q20 0 20 -20v-214h74q17 5 45.5 33t42.5 61q17 39 45.5 68t61 44t61.5 21.5t55 6.5h75q20 0 20 -20v-148q0 -20 -20 -20h-75
q-39 -3 -49 -27q-19 -44 -57 -90q25 -23 46 -61q43 -78 61 -168l3 -11h71q20 0 20 -20v-149q0 -20 -20 -20zM630 123h-26q-12 0 -22 2.5t-16.5 8t-11 10.5t-7.5 12.5t-4.5 12t-2.5 11t-1 7.5q-23 93 -55 151q-28 49 -71 73q-20 11 -4 25q56 50 83 112q8 19 23 33t28.5 20
t29 10t22 4.5t9.5 0.5h26v52h-26q-26 0 -54 -7.5t-59.5 -31t-46.5 -60.5q-22 -51 -69.5 -93t-78.5 -42h-125q-20 0 -20 20v214h-52v-598h52v292q0 20 20 20h147q82 0 120 -70q31 -56 49 -135q3 -38 31.5 -72.5t85.5 -34.5h26v53z" />
    <glyph glyph-name="uni041B" unicode="&#x41b;" horiz-adv-x="752" 
d="M533 547h-166q-23 -229 -49 -333q-54 -214 -193 -214h-75q-20 0 -20 20v149q0 20 20 20h60q37 57 67 349q14 127 14 184q0 14 20 14h491q20 0 20 -20v-696q0 -20 -20 -20h-149q-20 0 -20 20v527zM654 668h-396q0 -7 -13 -137q-5 -52 -9.5 -88t-12.5 -89.5t-16.5 -89.5
t-20.5 -71.5t-27.5 -53.5t-33.5 -18h-26v-53h26q22 0 41 9.5t34 31.5t26.5 43.5t21 60.5t16 67.5t13 79t10 80t9.5 85.5q2 30 8 71q1 19 21 19h256q20 0 20 -20v-527h53v600z" />
    <glyph glyph-name="uni041C" unicode="&#x41c;" horiz-adv-x="995" 
d="M945 0h-149q-20 0 -20 20v412l-265 -375q-6 -9 -14 -9t-14 9l-264 375v-412q0 -20 -20 -20h-149q-20 0 -20 20v696q0 20 20 20h172q15 0 24 -13l251 -358l252 358q9 13 24 13h172q20 0 20 -20v-696q0 -20 -20 -20zM794 667l-283 -400q-6 -9 -14 -9t-14 9l-282 400h-103
v-599h53v527q0 20 20 20q3 0 12 -13l314 -447l315 447q9 13 24 13q8 0 8 -20v-527h52v599h-102z" />
    <glyph glyph-name="uni041D" unicode="&#x41d;" horiz-adv-x="684" 
d="M634 0h-149q-20 0 -20 20v321h-246v-321q0 -20 -20 -20h-149q-20 0 -20 20v697q0 20 20 20h149q20 0 20 -20v-186h246v186q0 20 20 20h149q20 0 20 -20v-697q0 -20 -20 -20zM533 668v-186q0 -20 -20 -20h-342q-20 0 -20 20v186h-52v-600h52v322q0 20 20 20h342
q20 0 20 -20v-322h53v600h-53z" />
    <glyph glyph-name="uni041E" unicode="&#x41e;" horiz-adv-x="816" 
d="M408 -20q-160 0 -274 114t-114 274t114 274t274 114t274 -114t114 -274t-114 -274t-274 -114zM408 51q131 0 224 93t93 224t-93 224t-224 93t-224 -93t-93 -224t93 -224t224 -93zM408 630q109 0 186 -76.5t77 -185.5t-77 -186t-186 -77t-185.5 77t-76.5 186t76.5 185.5
t185.5 76.5zM408 559q-80 0 -135.5 -55.5t-55.5 -135.5t56 -136t135 -56q80 0 136 56t56 136q0 79 -56 135t-136 56z" />
    <glyph glyph-name="uni041F" unicode="&#x41f;" horiz-adv-x="684" 
d="M219 547v-527q0 -20 -20 -20h-149q-20 0 -20 20v697q0 20 20 20h584q20 0 20 -20v-697q0 -20 -20 -20h-149q-20 0 -20 20v527h-246zM151 68v528q0 20 20 20h342q20 0 20 -20v-528h53v600h-487v-600h52z" />
    <glyph glyph-name="uni0420" unicode="&#x420;" horiz-adv-x="689" 
d="M50 738h338q45 -2 92 -18t90.5 -47.5t71 -85.5t27.5 -123q0 -74 -24.5 -132.5t-65.5 -94t-90 -53.5t-101 -18h-168v-146q0 -20 -20 -20h-150q-20 0 -20 20v698q0 20 20 20zM171 234h217q85 0 149 56.5t64 173.5q0 45 -15.5 81t-39 58t-53.5 37t-56.5 21.5t-51.5 7.5h-287
v-601h53v146q0 20 20 20zM171 617h213q7 0 20.5 -2t40 -11t48 -24t38.5 -45.5t17 -70.5q0 -48 -14.5 -83t-33.5 -52.5t-44.5 -27.5t-40 -12t-27.5 -2h-217q-20 0 -20 20v290q0 20 20 20zM220 355h168q91 0 91 109q0 26 -11.5 44t-30 26t-30.5 10.5t-24 3.5h-163v-193z" />
    <glyph glyph-name="uni0421" unicode="&#x421;" horiz-adv-x="786" 
d="M753 183l-50 -60q-56 -66 -133.5 -102.5t-163.5 -36.5q-160 0 -273 113t-113 273t113 273.5t273 113.5q85 0 162 -35.5t132 -99.5l50 -59q13 -16 -2 -28l-118 -102q-16 -13 -28 2l-51 60q-57 66 -145 66q-79 0 -134.5 -56t-55.5 -135t55.5 -134.5t134.5 -55.5
q91 0 147 68l50 61q13 14 28 2l120 -100q14 -13 2 -28zM625 224l-18 -21q-78 -94 -201 -94q-108 0 -184.5 76.5t-76.5 184.5t76.5 185t184.5 77q121 0 199 -91l18 -21l41 35l-18 21q-45 52 -108 81t-132 29q-130 0 -222.5 -92.5t-92.5 -223.5q0 -130 92.5 -222.5
t222.5 -92.5q71 0 134.5 29.5t108.5 83.5l17 21z" />
    <glyph glyph-name="uni0422" unicode="&#x422;" horiz-adv-x="688" 
d="M438 547v-527q0 -20 -20 -20h-149q-20 0 -20 20v527h-199q-20 0 -20 20v150q0 20 20 20h588q20 0 20 -20v-150q0 -20 -20 -20h-200zM98 616h199q20 0 20 -20v-528h53v528q0 20 20 20h199v52h-491v-52z" />
    <glyph glyph-name="uni0423" unicode="&#x423;" horiz-adv-x="827" 
d="M798 712l-52 -89q-259 -441 -298 -503q-39 -63 -87 -91.5t-93 -28.5h-158q-20 0 -20 20v143q0 20 20 20h154q12 7 29 34l12 20l-262 475q-12 24 14 24h167q16 0 24 -14l166 -303q173 294 174 296l4 7q8 14 24 14h168q12 0 16 -7t-2 -17zM697 669h-60q-122 -210 -211 -359
q-6 -10 -14 -10t-13 10l-198 359h-59l232 -420q8 -13 0 -28l-25 -39q-41 -65 -81 -65h-112v-51h113q67 0 123 89q35 56 297 501z" />
    <glyph glyph-name="uni0424" unicode="&#x424;" horiz-adv-x="953" 
d="M572 605h133q93 0 155.5 -73t62.5 -163q0 -91 -66.5 -161.5t-151.5 -70.5h-133v-117q0 -20 -20 -20h-151q-20 0 -20 20v117h-134q-85 0 -151 70.5t-66 161.5q0 90 62 163t155 73h134v113q0 20 20 20h151q20 0 20 -20v-113zM450 669v-113q0 -20 -20 -20h-183
q-62 0 -105 -52t-43 -115t45.5 -113t102.5 -50h183q20 0 20 -20v-117h53v117q0 20 20 20h182q57 0 103 50t46 113t-43 115t-106 52h-182q-20 0 -20 20v113h-53zM430 259h-183q-35 0 -65 34.5t-30 75.5q0 43 27.5 78.5t67.5 35.5h183q20 0 20 -20v-184q0 -20 -20 -20z
M523 483h182q40 0 68 -36t28 -78q0 -41 -30.5 -75.5t-65.5 -34.5h-182q-20 0 -20 20v184q0 20 20 20zM381 414h-134q-7 0 -16.5 -14.5t-9.5 -30.5q0 -13 9.5 -26t17.5 -15h133v86zM572 328h133q8 2 17.5 15t9.5 26q0 16 -10 30.5t-17 14.5h-133v-86z" />
    <glyph glyph-name="uni0425" unicode="&#x425;" horiz-adv-x="981" 
d="M490 285l-223 -273q-8 -12 -24 -12h-196q-13 0 -16.5 7t4.5 17l333 412l-222 276q-8 10 -5 17t16 7h196q16 0 24 -12l113 -138l112 138q8 12 24 12h198q13 0 16.5 -7t-4.5 -17l-224 -277l334 -411q8 -10 4.5 -17t-16.5 -7h-199q-16 0 -24 12zM821 71l-286 351
q-11 14 0 28l176 217h-68l-139 -173q-15 -16 -28 0l-141 173h-68l178 -218q11 -14 0 -28l-283 -350h66l247 306q14 16 28 0l248 -306h70z" />
    <glyph glyph-name="uni0426" unicode="&#x426;" horiz-adv-x="777" 
d="M727 0h-677q-20 0 -20 20v696q0 20 20 20h150q20 0 20 -20v-526h246v526q0 20 20 20h150q20 0 20 -20v-526h71q20 0 20 -20v-150q0 -20 -20 -20zM534 667v-545h-1v-1h-362q-20 0 -20 20v526h-53v-599h580v54h-71q-20 0 -20 20v525h-53z" />
    <glyph glyph-name="uni0427" unicode="&#x427;" horiz-adv-x="698" 
d="M220 716v-252q0 -109 90 -109h168v361q0 20 20 20h150q20 0 20 -20v-696q0 -20 -20 -20h-150q-20 0 -20 20v146h-168q-52 0 -101 18t-89.5 53.5t-65 94t-24.5 132.5v252q0 20 20 20h150q20 0 20 -20zM98 669v-205q0 -117 63.5 -173.5t148.5 -56.5h218q20 0 20 -20v-146
h52v601h-52v-362q0 -20 -20 -20h-218q-13 0 -27.5 2t-40 12t-44.5 27.5t-33.5 52.5t-14.5 83v205h-52z" />
    <glyph glyph-name="uni0428" unicode="&#x428;" horiz-adv-x="1023" 
d="M30 20v696q0 20 20 20h148q20 0 20 -20v-528h199v528q0 20 20 20h149q20 0 20 -20v-528h197v528q0 20 20 20h150q20 0 20 -20v-696q0 -20 -20 -20h-923q-20 0 -20 20zM853 120h-296q-20 0 -20 20v529h-52v-529q0 -20 -20 -20h-295q-20 0 -20 20v529h-52v-601h827v601h-52
v-529q0 -20 -20 -20z" />
    <glyph glyph-name="uni0429" unicode="&#x429;" horiz-adv-x="1115" 
d="M1065 0h-1015q-20 0 -20 20v696q0 20 20 20h148q20 0 20 -20v-528h199v528q0 20 20 20h149q20 0 20 -20v-528h197v528q0 20 20 20h150q20 0 20 -20v-528h72q20 0 20 -20v-148q0 -20 -20 -20zM873 669v-529q0 -20 -20 -20h-296q-20 0 -20 20v529h-52v-529q0 -20 -20 -20
h-295q-20 0 -20 20v529h-52v-601h919v52h-72q-20 0 -20 20v529h-52z" />
    <glyph glyph-name="uni042A" unicode="&#x42a;" horiz-adv-x="796" 
d="M318 571h168q52 0 101 -18t89.5 -53.5t65 -94t24.5 -132.5q0 -35 -5.5 -68t-23.5 -72t-47.5 -67t-82.5 -47t-124 -19h-334q-20 0 -20 20v527h-79q-20 0 -20 20v149q0 20 20 20h248q20 0 20 -20v-145zM197 68h286q215 0 215 205q0 116 -63.5 172.5t-148.5 56.5h-216
q-20 0 -20 20v146h-152v-53h79q20 0 20 -20v-527zM270 450h216q13 0 27.5 -2t39.5 -12t44 -27.5t33.5 -53t14.5 -82.5q0 -39 -9 -67t-23 -44.5t-36.5 -25.5t-43.5 -12t-50 -3h-213q-20 0 -20 20v289q0 20 20 20zM318 189h165q59 0 76.5 15.5t17.5 68.5q0 109 -91 109h-168
v-193z" />
    <glyph glyph-name="uni042B" unicode="&#x42b;" horiz-adv-x="956" 
d="M218 571h168q53 0 101.5 -18t89 -53.5t65 -94t24.5 -132.5q0 -55 -18.5 -101.5t-47.5 -77t-66.5 -52t-74.5 -31.5t-73 -11h-336q-20 0 -20 20v696q0 20 20 20h148q20 0 20 -20v-145zM906 0h-148q-20 0 -20 20v696q0 20 20 20h148q20 0 20 -20v-696q0 -20 -20 -20zM98 68
h286q32 1 65.5 12t68.5 32.5t57.5 63.5t22.5 97q0 116 -63.5 172.5t-148.5 56.5h-216q-20 0 -20 20v146h-52v-600zM858 68v600h-52v-600h52zM170 450h216q13 0 28 -2t40 -12t44 -27.5t33.5 -53t14.5 -82.5q0 -40 -16.5 -70.5t-38 -45.5t-48 -24t-40 -10.5t-19.5 -1.5h-214
q-20 0 -20 20v289q0 20 20 20zM218 189h162q21 1 40 6.5t38.5 25.5t19.5 52q0 109 -92 109h-168v-193z" />
    <glyph glyph-name="uni042C" unicode="&#x42c;" horiz-adv-x="697" 
d="M219 571h168q52 0 101 -18t89.5 -53.5t65 -94t24.5 -132.5q0 -69 -27.5 -123t-71 -85t-90 -47t-91.5 -18h-337q-20 0 -20 20v696q0 20 20 20h149q20 0 20 -20v-145zM98 68h287q32 1 65.5 12t68.5 32.5t57.5 63.5t22.5 97q0 116 -63.5 172.5t-148.5 56.5h-216
q-20 0 -20 20v146h-53v-600zM171 450h216q13 0 27.5 -2t40 -12t44.5 -27.5t33.5 -53t14.5 -82.5q0 -40 -17 -70.5t-38.5 -45.5t-48 -24t-40 -10.5t-19.5 -1.5h-213q-20 0 -20 20v289q0 20 20 20zM219 189h162q20 1 39 6.5t38.5 25.5t19.5 52q0 109 -91 109h-168v-193z" />
    <glyph glyph-name="uni042D" unicode="&#x42d;" horiz-adv-x="799" 
d="M30 437v77q0 19 4 38.5t14.5 49.5t35.5 55.5t61.5 49t98.5 37t140 13.5q159 0 272 -113t113 -272q0 -160 -113.5 -276t-271.5 -116q-66 0 -120 9.5t-90 24t-63.5 35.5t-42 41.5t-24 44t-12 40t-2.5 33.5v77q0 20 20 20h155q20 0 20 -20v-75q47 -35 159 -35
q46 0 87.5 24.5t68.5 63.5h-228q-20 0 -20 20v155q0 20 20 20h242q-24 47 -69.5 75.5t-100.5 28.5q-70 0 -114.5 -13.5t-44.5 -34.5v-77q0 -20 -20 -20h-155q-20 0 -20 20zM100 235v-27q0 -25 10.5 -49t38 -50.5t88 -42.5t147.5 -16q129 0 222 96t93 226t-92.5 222
t-222.5 92q-87 0 -147.5 -17t-88 -45.5t-38 -54.5t-10.5 -55v-27h55v27q0 36 22.5 61.5t60.5 36.5t72.5 15.5t73.5 4.5q98 0 171 -64.5t87 -159.5q3 -21 -19 -21h-261v-54h258q23 0 18 -22q-21 -88 -92.5 -147.5t-161.5 -59.5q-37 0 -73 4.5t-73 15.5t-60 32.5t-23 51.5v27
h-55z" />
    <glyph glyph-name="uni042E" unicode="&#x42e;" horiz-adv-x="1083" 
d="M217 494h123q40 107 134.5 174.5t210.5 67.5q152 0 260 -109.5t108 -264.5q0 -154 -108 -263.5t-260 -109.5q-137 0 -240.5 90.5t-123.5 225.5h-104v-285q0 -20 -20 -20h-147q-20 0 -20 20v696q0 20 20 20h147q20 0 20 -20v-222zM169 373h195q20 0 20 -11q0 -126 88 -215
t213 -89t213 89t88 215t-88.5 215.5t-212.5 89.5q-103 0 -183.5 -63t-106.5 -161q-5 -17 -22 -17h-204q-20 0 -20 20v221h-52v-599h52v285q0 20 20 20zM685 615q103 0 176 -74.5t73 -178.5t-73 -178t-176 -74t-176 74t-73 178t73 178.5t176 74.5zM685 178q75 0 128.5 54
t53.5 130t-53.5 130.5t-128.5 54.5t-128.5 -54.5t-53.5 -130.5t53.5 -130t128.5 -54z" />
    <glyph glyph-name="uni042F" unicode="&#x42f;" horiz-adv-x="727" 
d="M677 0h-150q-20 0 -20 20v145h-195q-13 0 -33 -4q-2 -57 -22 -91q-40 -69 -132 -69h-75q-20 0 -20 20v150q0 20 20 20h42q4 49 25 80q-59 77 -59 192q0 69 27.5 123.5t70.5 86t90 48t93 16.5h338q20 0 20 -20v-697q0 -20 -20 -20zM628 668h-287q-32 0 -67 -10.5
t-69.5 -33t-56.5 -64.5t-22 -97q0 -118 73 -181q17 -14 1 -24q-8 -4 -16 -12q-23 -23 -25 -77q-2 -30 -7.5 -38t-26.5 -8h-27v-53h27q28 0 46.5 9t26.5 27t10 29t3 30q2 35 10 43q22 22 89 25h245q20 0 20 -20v-145h53v600zM555 286h-227q-16 1 -31.5 4.5t-38 15t-39 29.5
t-28.5 51.5t-12 76.5q0 40 16 70.5t37.5 45.5t47.5 24t40 11t22 2h213q20 0 20 -20v-290q0 -20 -20 -20zM507 547h-163q-34 0 -65.5 -19t-31.5 -65q0 -51 21.5 -79.5t61.5 -28.5h177v192z" />
    <glyph glyph-name="uni0430" unicode="&#x430;" horiz-adv-x="863" 
d="M272 105l-44 -90q-8 -15 -23 -15h-164q-11 0 -15.5 7t0.5 17l333 697q7 15 23 15h141q17 0 23 -15l292 -698q10 -23 -15 -23h-169q-17 0 -23 16l-37 89h-322zM409 667l-287 -596h59l42 87q7 15 23 15h378q17 0 23 -15l36 -87h59l-247 596h-86zM594 226h-312
q-11 0 -15.5 7t0.5 17l168 350q7 15 23 15q1 0 8 -17l143 -349q10 -23 -15 -23zM517 294l-70 172l-84 -172h154z" />
    <glyph glyph-name="uni0431" unicode="&#x431;" horiz-adv-x="675" 
d="M220 495h163q128 0 195 -71t67 -170q0 -102 -69.5 -178t-192.5 -76h-333q-20 0 -20 20v697q0 20 20 20h551q20 0 20 -20v-150q0 -20 -20 -20h-381v-52zM99 68h284q94 0 144 54.5t50 131.5q0 80 -52 126t-142 46h-212q-20 0 -20 20v150q0 20 20 20h382v52h-454v-600z
M171 374h212q67 0 104.5 -31.5t37.5 -88.5q0 -54 -35 -93.5t-107 -39.5h-212q-20 0 -20 20v213q0 20 20 20zM220 189h163q73 0 73 65v1q0 10 -1.5 16.5t-7.5 15.5t-22.5 13.5t-41.5 4.5h-163v-116z" />
    <glyph glyph-name="uni0432" unicode="&#x432;" horiz-adv-x="675" 
d="M50 737h317q125 0 193 -63.5t68 -147.5q0 -67 -38 -123q55 -69 55 -178q0 -92 -67 -158.5t-195 -66.5h-333q-20 0 -20 20v697q0 20 20 20zM99 68h284q99 0 146.5 47t47.5 110q0 115 -70 164q-16 12 0 25q53 42 53 112q0 57 -50.5 99.5t-142.5 42.5h-268v-600zM171 616
h196q68 0 104 -26.5t36 -63.5q0 -100 -140 -100h-196q-20 0 -20 20v150q0 20 20 20zM220 495h194q10 0 18 7.5t8 18.5t-8 18.5t-18 7.5h-194v-52zM171 374h196q81 0 119.5 -36.5t38.5 -112.5q0 -49 -37.5 -76.5t-104.5 -27.5h-212q-20 0 -20 20v213q0 20 20 20zM219 189h183
q24 0 41 17t17 41t-17 41t-41 17h-183v-116z" />
    <glyph glyph-name="uni0433" unicode="&#x433;" horiz-adv-x="636" 
d="M219 547v-527q0 -20 -20 -20h-149q-20 0 -20 20v696q0 20 20 20h551q20 0 20 -20v-149q0 -20 -20 -20h-382zM151 68v527q0 20 20 20h382v53h-455v-600h53z" />
    <glyph glyph-name="uni0434" unicode="&#x434;" horiz-adv-x="837" 
d="M787 -92h-148q-20 0 -20 20v72h-401v-72q0 -20 -20 -20h-148q-20 0 -20 20v240q0 20 20 20h50q25 43 50.5 178.5t36.5 282.5l5 68q2 19 20 19h486q20 0 20 -20v-528h69q20 0 20 -20v-240q0 -20 -20 -20zM255 668v-24q0 -4 -3 -40t-11.5 -105t-19.5 -128
q-12 -68 -26.5 -119t-25 -75t-21.5 -38t-16 -16.5t-8 -2.5h-26v-144h52v72q0 20 20 20h497q20 0 20 -20v-72h52v144h-69q-20 0 -20 20v528h-395zM578 120h-353q-25 0 -14 23q34 73 61 219q18 103 31 235q1 19 21 19h254q20 0 20 -20v-456q0 -20 -20 -20zM530 548h-164
q-27 -242 -65 -360h229v360z" />
    <glyph glyph-name="uni0435" unicode="&#x435;" 
d="M589 0h-539q-20 0 -20 20v696q0 20 20 20h523q20 0 20 -20v-150q0 -20 -20 -20h-354v-51h175q20 0 20 -20v-150q0 -20 -20 -20h-175v-116h370q20 0 20 -20v-149q0 -20 -20 -20zM151 141v213q0 20 20 20h175v52h-175q-20 0 -20 20v149q0 20 20 20h353v52h-425v-599h441v53
h-369q-20 0 -20 20z" />
    <glyph glyph-name="uni0436" unicode="&#x436;" horiz-adv-x="1060" 
d="M1010 0h-75q-84 0 -131 50.5t-54 112.5q-17 71 -41 115q-19 35 -62 35h-20v-293q0 -20 -20 -20h-149q-20 0 -20 20v293h-25q-43 0 -62 -35q-23 -42 -41 -115q-7 -62 -54 -112.5t-131 -50.5h-75q-20 0 -20 20v149q0 20 20 20h72v4q0 1 3.5 14t6 24t8.5 29.5t12 35
t14.5 36.5t18.5 38q20 36 46 60q-36 43 -56 90q-3 7 -9.5 12.5t-13 8t-13 4.5t-10.5 3h-4h-75q-20 0 -20 20v148q0 20 20 20h75q36 0 75 -11t83 -44.5t66 -85.5q14 -32 43 -60t46 -33v214q0 20 20 20h149q20 0 20 -20v-212q19 9 45 35t39 57q17 39 46 68t61.5 44t61.5 21.5
t55 6.5h75q20 0 20 -20v-149q0 -20 -20 -20h-75q-40 -2 -50 -26q-20 -47 -56 -91q26 -24 46 -60q17 -30 32 -71.5t21 -64t8 -33.5l3 -12h71q20 0 20 -20v-149q0 -20 -20 -20zM961 121h-26q-13 0 -23 3t-16.5 8t-11 10.5t-7.5 12.5t-4.5 12t-2.5 11t-1 7q-25 99 -54 152
q-29 51 -72 74q-19 10 -3 25q56 50 83 112q8 19 23 33t28.5 20t29 10t22 4.5t9.5 0.5h26v52h-26q-43 0 -90.5 -23t-70.5 -76q-22 -51 -69.5 -93t-78.5 -42h-47q-20 0 -20 20v214h-53v-214q0 -20 -20 -20h-52q-31 0 -78.5 41.5t-69.5 92.5q-23 53 -70.5 76.5t-90.5 23.5h-26
v-52h26q3 0 9.5 -0.5t22 -4.5t29.5 -10t29 -20t23 -33q28 -65 82 -112q17 -14 -3 -25q-45 -25 -72 -74q-34 -63 -55 -156q-1 -7 -3 -14t-8 -19t-20 -19.5t-34 -7.5h-26v-53h26q57 0 85.5 34.5t31.5 72.5q19 81 49 136q39 70 122 70h73q20 0 20 -20v-293h53v293q0 20 20 20
h69q82 0 121 -70q30 -55 49 -136q3 -38 31.5 -72.5t85.5 -34.5h26v53z" />
    <glyph glyph-name="uni0437" unicode="&#x437;" horiz-adv-x="687" 
d="M601 406l1 -1q55 -66 55 -159q0 -16 -2 -30q-1 -30 -7.5 -58t-27.5 -61.5t-53.5 -58.5t-90.5 -41.5t-133 -16.5q-69 0 -123.5 14t-87 37.5t-54.5 49t-31.5 55.5t-13 49.5t-3.5 37.5v90q0 20 20 20h152q20 0 20 -20v-90q0 -51 105 -51h16q73 0 109 30q13 11 13 44
q0 23 -11 36q-19 22 -82 22h-83q-20 0 -20 20v152q0 20 20 20h83q71 0 71 22q0 14 -34 30.5t-75 16.5q-45 0 -78.5 -15t-33.5 -29v-69q0 -20 -20 -20h-152q-20 0 -20 20v76q0 95 87 162t217 67q123 0 213 -69.5t90 -159.5q0 -67 -36 -122zM100 264v-41q0 -27 9 -53
t32.5 -55.5t75.5 -47.5t126 -18q23 0 47 2.5t59.5 12t62.5 25.5t48.5 47.5t24.5 72.5q2 18 2 23v12q0 70 -39 117q-15 18 -31 29q-17 11 -1 24q52 43 52 114q0 57 -67.5 108.5t-166.5 51.5q-98 0 -166 -48.5t-68 -111.5v-26h53v26q0 37 51.5 71.5t129.5 34.5q75 0 127.5 -37
t52.5 -69q0 -101 -142 -101h-34v-53h34q96 0 135 -47q27 -32 27 -82v-2q0 -45 -13 -69q-37 -71 -178 -71q-92 0 -141 33t-49 87v41h-53z" />
    <glyph glyph-name="uni0438" unicode="&#x438;" horiz-adv-x="678" 
d="M628 0h-150q-20 0 -20 20v348l-249 -355q-9 -13 -24 -13h-135q-20 0 -20 20v697q0 20 20 20h150q20 0 20 -20v-359l257 366q9 13 24 13h127q20 0 20 -20v-697q0 -20 -20 -20zM522 669l-347 -492q-8 -12 -16 -9.5t-8 16.5v485h-52v-601h65l339 481q8 12 16 9.5t8 -16.5
v-474h52v601h-57z" />
    <glyph glyph-name="uni0439" unicode="&#x439;" horiz-adv-x="682" 
d="M571 898l-24 -65q-12 -34 -62.5 -65t-148.5 -31q-97 0 -143 30.5t-57 65.5l-25 65q-8 18 11 26l142 58q18 8 26 -11l15 -44h31h42l14 43q8 20 26 12l142 -59q19 -6 11 -25zM441 906l-6 -19q-5 -15 -16 -20q-30 -14 -83 -14q-45 0 -73 14q-10 4 -15 20l-7 19l-52 -21
l9 -32q4 -6 12 -14.5t43.5 -23t82.5 -14.5q39 0 69.5 8t44 18t22.5 18t12 8l10 32zM652 717v-697q0 -20 -20 -20h-150q-20 0 -20 20v349l-255 -357q-9 -12 -24 -12h-133q-20 0 -20 20v697q0 20 20 20h150q20 0 20 -20v-359l255 366q9 13 24 13h133q20 0 20 -20zM525 674
l-344 -501q-8 -12 -16 -9.5t-8 16.5v494h-53v-600h64l333 481q8 12 16 9t8 -17v-473h53v600h-53z" />
    <glyph glyph-name="uni043A" unicode="&#x43a;" horiz-adv-x="729" 
d="M679 2h-75q-83 0 -130 50.5t-54 112.5q-17 71 -41 115q-18 34 -61 34h-99v-292q0 -20 -20 -20h-149q-20 0 -20 20v694q0 20 20 20h149q20 0 20 -20v-214h74q17 5 45.5 33t42.5 61q17 39 45.5 68t61 44t61.5 21.5t55 6.5h75q20 0 20 -20v-148q0 -20 -20 -20h-75
q-39 -3 -49 -27q-19 -44 -57 -90q25 -23 46 -61q43 -78 61 -168l3 -11h71q20 0 20 -20v-149q0 -20 -20 -20zM630 123h-26q-12 0 -22 2.5t-16.5 8t-11 10.5t-7.5 12.5t-4.5 12t-2.5 11t-1 7.5q-23 93 -55 151q-28 49 -71 73q-20 11 -4 25q56 50 83 112q8 19 23 33t28.5 20
t29 10t22 4.5t9.5 0.5h26v52h-26q-26 0 -54 -7.5t-59.5 -31t-46.5 -60.5q-22 -51 -69.5 -93t-78.5 -42h-125q-20 0 -20 20v214h-52v-598h52v292q0 20 20 20h147q82 0 120 -70q31 -56 49 -135q3 -38 31.5 -72.5t85.5 -34.5h26v53z" />
    <glyph glyph-name="uni043B" unicode="&#x43b;" horiz-adv-x="752" 
d="M533 547h-166q-23 -229 -49 -333q-54 -214 -193 -214h-75q-20 0 -20 20v149q0 20 20 20h60q37 57 67 349q14 127 14 184q0 14 20 14h491q20 0 20 -20v-696q0 -20 -20 -20h-149q-20 0 -20 20v527zM654 668h-396q0 -7 -13 -137q-5 -52 -9.5 -88t-12.5 -89.5t-16.5 -89.5
t-20.5 -71.5t-27.5 -53.5t-33.5 -18h-26v-53h26q22 0 41 9.5t34 31.5t26.5 43.5t21 60.5t16 67.5t13 79t10 80t9.5 85.5q2 30 8 71q1 19 21 19h256q20 0 20 -20v-527h53v600z" />
    <glyph glyph-name="uni043C" unicode="&#x43c;" horiz-adv-x="995" 
d="M945 0h-149q-20 0 -20 20v412l-265 -375q-6 -9 -14 -9t-14 9l-264 375v-412q0 -20 -20 -20h-149q-20 0 -20 20v696q0 20 20 20h172q15 0 24 -13l251 -358l252 358q9 13 24 13h172q20 0 20 -20v-696q0 -20 -20 -20zM794 667l-283 -400q-6 -9 -14 -9t-14 9l-282 400h-103
v-599h53v527q0 20 20 20q3 0 12 -13l314 -447l315 447q9 13 24 13q8 0 8 -20v-527h52v599h-102z" />
    <glyph glyph-name="uni043D" unicode="&#x43d;" horiz-adv-x="684" 
d="M634 0h-149q-20 0 -20 20v321h-246v-321q0 -20 -20 -20h-149q-20 0 -20 20v697q0 20 20 20h149q20 0 20 -20v-186h246v186q0 20 20 20h149q20 0 20 -20v-697q0 -20 -20 -20zM533 668v-186q0 -20 -20 -20h-342q-20 0 -20 20v186h-52v-600h52v322q0 20 20 20h342
q20 0 20 -20v-322h53v600h-53z" />
    <glyph glyph-name="uni043E" unicode="&#x43e;" horiz-adv-x="816" 
d="M408 -20q-160 0 -274 114t-114 274t114 274t274 114t274 -114t114 -274t-114 -274t-274 -114zM408 51q131 0 224 93t93 224t-93 224t-224 93t-224 -93t-93 -224t93 -224t224 -93zM408 630q109 0 186 -76.5t77 -185.5t-77 -186t-186 -77t-185.5 77t-76.5 186t76.5 185.5
t185.5 76.5zM408 559q-80 0 -135.5 -55.5t-55.5 -135.5t56 -136t135 -56q80 0 136 56t56 136q0 79 -56 135t-136 56z" />
    <glyph glyph-name="uni043F" unicode="&#x43f;" horiz-adv-x="684" 
d="M219 547v-527q0 -20 -20 -20h-149q-20 0 -20 20v697q0 20 20 20h584q20 0 20 -20v-697q0 -20 -20 -20h-149q-20 0 -20 20v527h-246zM151 68v528q0 20 20 20h342q20 0 20 -20v-528h53v600h-487v-600h52z" />
    <glyph glyph-name="uni0440" unicode="&#x440;" horiz-adv-x="689" 
d="M50 738h338q45 -2 92 -18t90.5 -47.5t71 -85.5t27.5 -123q0 -74 -24.5 -132.5t-65.5 -94t-90 -53.5t-101 -18h-168v-146q0 -20 -20 -20h-150q-20 0 -20 20v698q0 20 20 20zM171 234h217q85 0 149 56.5t64 173.5q0 45 -15.5 81t-39 58t-53.5 37t-56.5 21.5t-51.5 7.5h-287
v-601h53v146q0 20 20 20zM171 617h213q7 0 20.5 -2t40 -11t48 -24t38.5 -45.5t17 -70.5q0 -48 -14.5 -83t-33.5 -52.5t-44.5 -27.5t-40 -12t-27.5 -2h-217q-20 0 -20 20v290q0 20 20 20zM220 355h168q91 0 91 109q0 26 -11.5 44t-30 26t-30.5 10.5t-24 3.5h-163v-193z" />
    <glyph glyph-name="uni0441" unicode="&#x441;" horiz-adv-x="786" 
d="M753 183l-50 -60q-56 -66 -133.5 -102.5t-163.5 -36.5q-160 0 -273 113t-113 273t113 273.5t273 113.5q85 0 162 -35.5t132 -99.5l50 -59q13 -16 -2 -28l-118 -102q-16 -13 -28 2l-51 60q-57 66 -145 66q-79 0 -134.5 -56t-55.5 -135t55.5 -134.5t134.5 -55.5
q91 0 147 68l50 61q13 14 28 2l120 -100q14 -13 2 -28zM625 224l-18 -21q-78 -94 -201 -94q-108 0 -184.5 76.5t-76.5 184.5t76.5 185t184.5 77q121 0 199 -91l18 -21l41 35l-18 21q-45 52 -108 81t-132 29q-130 0 -222.5 -92.5t-92.5 -223.5q0 -130 92.5 -222.5
t222.5 -92.5q71 0 134.5 29.5t108.5 83.5l17 21z" />
    <glyph glyph-name="uni0442" unicode="&#x442;" horiz-adv-x="688" 
d="M438 547v-527q0 -20 -20 -20h-149q-20 0 -20 20v527h-199q-20 0 -20 20v150q0 20 20 20h588q20 0 20 -20v-150q0 -20 -20 -20h-200zM98 616h199q20 0 20 -20v-528h53v528q0 20 20 20h199v52h-491v-52z" />
    <glyph glyph-name="uni0443" unicode="&#x443;" horiz-adv-x="827" 
d="M798 712l-52 -89q-259 -441 -298 -503q-39 -63 -87 -91.5t-93 -28.5h-158q-20 0 -20 20v143q0 20 20 20h154q12 7 29 34l12 20l-262 475q-12 24 14 24h167q16 0 24 -14l166 -303q173 294 174 296l4 7q8 14 24 14h168q12 0 16 -7t-2 -17zM697 669h-60q-122 -210 -211 -359
q-6 -10 -14 -10t-13 10l-198 359h-59l232 -420q8 -13 0 -28l-25 -39q-41 -65 -81 -65h-112v-51h113q67 0 123 89q35 56 297 501z" />
    <glyph glyph-name="uni0444" unicode="&#x444;" horiz-adv-x="953" 
d="M572 605h133q93 0 155.5 -73t62.5 -163q0 -91 -66.5 -161.5t-151.5 -70.5h-133v-117q0 -20 -20 -20h-151q-20 0 -20 20v117h-134q-85 0 -151 70.5t-66 161.5q0 90 62 163t155 73h134v113q0 20 20 20h151q20 0 20 -20v-113zM450 669v-113q0 -20 -20 -20h-183
q-62 0 -105 -52t-43 -115t45.5 -113t102.5 -50h183q20 0 20 -20v-117h53v117q0 20 20 20h182q57 0 103 50t46 113t-43 115t-106 52h-182q-20 0 -20 20v113h-53zM430 259h-183q-35 0 -65 34.5t-30 75.5q0 43 27.5 78.5t67.5 35.5h183q20 0 20 -20v-184q0 -20 -20 -20z
M523 483h182q40 0 68 -36t28 -78q0 -41 -30.5 -75.5t-65.5 -34.5h-182q-20 0 -20 20v184q0 20 20 20zM381 414h-134q-7 0 -16.5 -14.5t-9.5 -30.5q0 -13 9.5 -26t17.5 -15h133v86zM572 328h133q8 2 17.5 15t9.5 26q0 16 -10 30.5t-17 14.5h-133v-86z" />
    <glyph glyph-name="uni0445" unicode="&#x445;" horiz-adv-x="981" 
d="M490 285l-223 -273q-8 -12 -24 -12h-196q-13 0 -16.5 7t4.5 17l333 412l-222 276q-8 10 -5 17t16 7h196q16 0 24 -12l113 -138l112 138q8 12 24 12h198q13 0 16.5 -7t-4.5 -17l-224 -277l334 -411q8 -10 4.5 -17t-16.5 -7h-199q-16 0 -24 12zM821 71l-286 351
q-11 14 0 28l176 217h-68l-139 -173q-15 -16 -28 0l-141 173h-68l178 -218q11 -14 0 -28l-283 -350h66l247 306q14 16 28 0l248 -306h70z" />
    <glyph glyph-name="uni0446" unicode="&#x446;" horiz-adv-x="777" 
d="M727 0h-677q-20 0 -20 20v696q0 20 20 20h150q20 0 20 -20v-526h246v526q0 20 20 20h150q20 0 20 -20v-526h71q20 0 20 -20v-150q0 -20 -20 -20zM534 667v-545h-1v-1h-362q-20 0 -20 20v526h-53v-599h580v54h-71q-20 0 -20 20v525h-53z" />
    <glyph glyph-name="uni0447" unicode="&#x447;" horiz-adv-x="698" 
d="M220 716v-252q0 -109 90 -109h168v361q0 20 20 20h150q20 0 20 -20v-696q0 -20 -20 -20h-150q-20 0 -20 20v146h-168q-52 0 -101 18t-89.5 53.5t-65 94t-24.5 132.5v252q0 20 20 20h150q20 0 20 -20zM98 669v-205q0 -117 63.5 -173.5t148.5 -56.5h218q20 0 20 -20v-146
h52v601h-52v-362q0 -20 -20 -20h-218q-13 0 -27.5 2t-40 12t-44.5 27.5t-33.5 52.5t-14.5 83v205h-52z" />
    <glyph glyph-name="uni0448" unicode="&#x448;" horiz-adv-x="1023" 
d="M30 20v696q0 20 20 20h148q20 0 20 -20v-528h199v528q0 20 20 20h149q20 0 20 -20v-528h197v528q0 20 20 20h150q20 0 20 -20v-696q0 -20 -20 -20h-923q-20 0 -20 20zM853 120h-296q-20 0 -20 20v529h-52v-529q0 -20 -20 -20h-295q-20 0 -20 20v529h-52v-601h827v601h-52
v-529q0 -20 -20 -20z" />
    <glyph glyph-name="uni0449" unicode="&#x449;" horiz-adv-x="1115" 
d="M1065 0h-1015q-20 0 -20 20v696q0 20 20 20h148q20 0 20 -20v-528h199v528q0 20 20 20h149q20 0 20 -20v-528h197v528q0 20 20 20h150q20 0 20 -20v-528h72q20 0 20 -20v-148q0 -20 -20 -20zM873 669v-529q0 -20 -20 -20h-296q-20 0 -20 20v529h-52v-529q0 -20 -20 -20
h-295q-20 0 -20 20v529h-52v-601h919v52h-72q-20 0 -20 20v529h-52z" />
    <glyph glyph-name="uni044A" unicode="&#x44a;" horiz-adv-x="796" 
d="M318 571h168q52 0 101 -18t89.5 -53.5t65 -94t24.5 -132.5q0 -35 -5.5 -68t-23.5 -72t-47.5 -67t-82.5 -47t-124 -19h-334q-20 0 -20 20v527h-79q-20 0 -20 20v149q0 20 20 20h248q20 0 20 -20v-145zM197 68h286q215 0 215 205q0 116 -63.5 172.5t-148.5 56.5h-216
q-20 0 -20 20v146h-152v-53h79q20 0 20 -20v-527zM270 450h216q13 0 27.5 -2t39.5 -12t44 -27.5t33.5 -53t14.5 -82.5q0 -39 -9 -67t-23 -44.5t-36.5 -25.5t-43.5 -12t-50 -3h-213q-20 0 -20 20v289q0 20 20 20zM318 189h165q59 0 76.5 15.5t17.5 68.5q0 109 -91 109h-168
v-193z" />
    <glyph glyph-name="uni044B" unicode="&#x44b;" horiz-adv-x="956" 
d="M218 571h168q53 0 101.5 -18t89 -53.5t65 -94t24.5 -132.5q0 -55 -18.5 -101.5t-47.5 -77t-66.5 -52t-74.5 -31.5t-73 -11h-336q-20 0 -20 20v696q0 20 20 20h148q20 0 20 -20v-145zM906 0h-148q-20 0 -20 20v696q0 20 20 20h148q20 0 20 -20v-696q0 -20 -20 -20zM98 68
h286q32 1 65.5 12t68.5 32.5t57.5 63.5t22.5 97q0 116 -63.5 172.5t-148.5 56.5h-216q-20 0 -20 20v146h-52v-600zM858 68v600h-52v-600h52zM170 450h216q13 0 28 -2t40 -12t44 -27.5t33.5 -53t14.5 -82.5q0 -40 -16.5 -70.5t-38 -45.5t-48 -24t-40 -10.5t-19.5 -1.5h-214
q-20 0 -20 20v289q0 20 20 20zM218 189h162q21 1 40 6.5t38.5 25.5t19.5 52q0 109 -92 109h-168v-193z" />
    <glyph glyph-name="uni044C" unicode="&#x44c;" horiz-adv-x="697" 
d="M219 571h168q52 0 101 -18t89.5 -53.5t65 -94t24.5 -132.5q0 -69 -27.5 -123t-71 -85t-90 -47t-91.5 -18h-337q-20 0 -20 20v696q0 20 20 20h149q20 0 20 -20v-145zM98 68h287q32 1 65.5 12t68.5 32.5t57.5 63.5t22.5 97q0 116 -63.5 172.5t-148.5 56.5h-216
q-20 0 -20 20v146h-53v-600zM171 450h216q13 0 27.5 -2t40 -12t44.5 -27.5t33.5 -53t14.5 -82.5q0 -40 -17 -70.5t-38.5 -45.5t-48 -24t-40 -10.5t-19.5 -1.5h-213q-20 0 -20 20v289q0 20 20 20zM219 189h162q20 1 39 6.5t38.5 25.5t19.5 52q0 109 -91 109h-168v-193z" />
    <glyph glyph-name="uni044D" unicode="&#x44d;" horiz-adv-x="799" 
d="M30 437v77q0 19 4 38.5t14.5 49.5t35.5 55.5t61.5 49t98.5 37t140 13.5q159 0 272 -113t113 -272q0 -160 -113.5 -276t-271.5 -116q-66 0 -120 9.5t-90 24t-63.5 35.5t-42 41.5t-24 44t-12 40t-2.5 33.5v77q0 20 20 20h155q20 0 20 -20v-75q47 -35 159 -35
q46 0 87.5 24.5t68.5 63.5h-228q-20 0 -20 20v155q0 20 20 20h242q-24 47 -69.5 75.5t-100.5 28.5q-70 0 -114.5 -13.5t-44.5 -34.5v-77q0 -20 -20 -20h-155q-20 0 -20 20zM100 235v-27q0 -25 10.5 -49t38 -50.5t88 -42.5t147.5 -16q129 0 222 96t93 226t-92.5 222
t-222.5 92q-87 0 -147.5 -17t-88 -45.5t-38 -54.5t-10.5 -55v-27h55v27q0 36 22.5 61.5t60.5 36.5t72.5 15.5t73.5 4.5q98 0 171 -64.5t87 -159.5q3 -21 -19 -21h-261v-54h258q23 0 18 -22q-21 -88 -92.5 -147.5t-161.5 -59.5q-37 0 -73 4.5t-73 15.5t-60 32.5t-23 51.5v27
h-55z" />
    <glyph glyph-name="uni044E" unicode="&#x44e;" horiz-adv-x="1083" 
d="M217 494h123q40 107 134.5 174.5t210.5 67.5q152 0 260 -109.5t108 -264.5q0 -154 -108 -263.5t-260 -109.5q-137 0 -240.5 90.5t-123.5 225.5h-104v-285q0 -20 -20 -20h-147q-20 0 -20 20v696q0 20 20 20h147q20 0 20 -20v-222zM169 373h195q20 0 20 -11q0 -126 88 -215
t213 -89t213 89t88 215t-88.5 215.5t-212.5 89.5q-103 0 -183.5 -63t-106.5 -161q-5 -17 -22 -17h-204q-20 0 -20 20v221h-52v-599h52v285q0 20 20 20zM685 615q103 0 176 -74.5t73 -178.5t-73 -178t-176 -74t-176 74t-73 178t73 178.5t176 74.5zM685 178q75 0 128.5 54
t53.5 130t-53.5 130.5t-128.5 54.5t-128.5 -54.5t-53.5 -130.5t53.5 -130t128.5 -54z" />
    <glyph glyph-name="uni044F" unicode="&#x44f;" horiz-adv-x="727" 
d="M677 0h-150q-20 0 -20 20v145h-195q-13 0 -33 -4q-2 -57 -22 -91q-40 -69 -132 -69h-75q-20 0 -20 20v150q0 20 20 20h42q4 49 25 80q-59 77 -59 192q0 69 27.5 123.5t70.5 86t90 48t93 16.5h338q20 0 20 -20v-697q0 -20 -20 -20zM628 668h-287q-32 0 -67 -10.5
t-69.5 -33t-56.5 -64.5t-22 -97q0 -118 73 -181q17 -14 1 -24q-8 -4 -16 -12q-23 -23 -25 -77q-2 -30 -7.5 -38t-26.5 -8h-27v-53h27q28 0 46.5 9t26.5 27t10 29t3 30q2 35 10 43q22 22 89 25h245q20 0 20 -20v-145h53v600zM555 286h-227q-16 1 -31.5 4.5t-38 15t-39 29.5
t-28.5 51.5t-12 76.5q0 40 16 70.5t37.5 45.5t47.5 24t40 11t22 2h213q20 0 20 -20v-290q0 -20 -20 -20zM507 547h-163q-34 0 -65.5 -19t-31.5 -65q0 -51 21.5 -79.5t61.5 -28.5h177v192z" />
    <glyph glyph-name="uni0451" unicode="&#x451;" 
d="M513 801h-148q-20 0 -20 20v150q0 20 20 20h148q20 0 20 -20v-150q0 -20 -20 -20zM465 869v54h-52v-54h52zM589 0h-539q-20 0 -20 20v696q0 20 20 20h523q20 0 20 -20v-150q0 -20 -20 -20h-354v-51h175q20 0 20 -20v-150q0 -20 -20 -20h-175v-116h370q20 0 20 -20v-149
q0 -20 -20 -20zM151 141v213q0 20 20 20h175v52h-175q-20 0 -20 20v149q0 20 20 20h353v52h-425v-599h441v53h-369q-20 0 -20 20zM228 801h-148q-20 0 -20 20v150q0 20 20 20h148q20 0 20 -20v-150q0 -20 -20 -20zM180 869v54h-52v-54h52z" />
    <glyph glyph-name="endash" unicode="&#x2013;" horiz-adv-x="703" 
d="M653 238h-603q-20 0 -20 20v150q0 20 20 20h603q20 0 20 -20v-150q0 -20 -20 -20zM605 306v54h-507v-54h507z" />
    <glyph glyph-name="emdash" unicode="&#x2014;" horiz-adv-x="780" 
d="M730 238h-680q-20 0 -20 20v150q0 20 20 20h680q20 0 20 -20v-150q0 -20 -20 -20zM682 306v54h-584v-54h584z" />
    <glyph glyph-name="bullet" unicode="&#x2022;" horiz-adv-x="404" 
d="M205 521q65 0 112 -43t47 -111q0 -61 -48 -107.5t-111 -46.5q-69 0 -117 46t-48 108q0 69 47 111.5t118 42.5zM205 274q32 0 59.5 27.5t27.5 65.5t-27.5 65.5t-59.5 27.5q-39 0 -66 -27t-27 -66t27 -66t66 -27zM205 408q15 0 25 -12.5t10 -28.5t-10 -28.5t-25 -12.5
q-16 0 -28.5 12.5t-12.5 28.5q0 15 12.5 28t28.5 13z" />
    <glyph glyph-name="ellipsis" unicode="&#x2026;" horiz-adv-x="868" 
d="M198 0h-148q-20 0 -20 20v150q0 20 20 20h148q20 0 20 -20v-150q0 -20 -20 -20zM504 0h-148q-20 0 -20 20v150q0 20 20 20h148q20 0 20 -20v-150q0 -20 -20 -20zM818 0h-148q-20 0 -20 20v150q0 20 20 20h148q20 0 20 -20v-150q0 -20 -20 -20zM150 68v54h-52v-54h52z
M456 68v54h-52v-54h52zM770 68v54h-52v-54h52z" />
    <glyph glyph-name="trademark" unicode="&#x2122;" horiz-adv-x="1621" 
d="M1399 736h172q20 0 20 -20v-696q0 -20 -20 -20h-149q-20 0 -20 20v412l-265 -375q-6 -9 -14 -9t-14 9l-264 375v-412q0 -20 -20 -20h-149q-20 0 -20 20v527h-218v-527q0 -20 -20 -20h-149q-20 0 -20 20v527h-199q-20 0 -20 20v150q0 20 20 20h596q12 0 12 -12q0 11 20 11
h170q15 0 24 -13l251 -358l252 358q9 13 24 13zM1420 667l-283 -400q-6 -9 -14 -9t-14 9l-282 400h-65q-11 0 -11 11q0 -10 -20 -10h-633v-52h199q20 0 20 -20v-528h53v528q0 20 20 20h314q20 0 20 -20v-528h53v527q0 20 20 20q3 0 12 -13l314 -447l315 447q9 13 24 13
q8 0 8 -20v-527h52v599h-102z" />
  </font>
</defs>
</svg>
